<svg width="35" height="32" viewBox="0 0 35 32" fill="none" xmlns="http://www.w3.org/2000/svg">
<path fill-rule="evenodd" clip-rule="evenodd" d="M15.0398 3.19617H10.9367C10.4711 3.19617 10.0898 3.57894 10.0898 4.04897C10.0898 4.51901 10.4711 4.9043 10.9367 4.9043H15.0398C15.5054 4.9043 15.8867 4.51901 15.8867 4.04897C15.8867 3.57894 15.5054 3.19617 15.0398 3.19617Z" fill="#377DE2"/>
<path fill-rule="evenodd" clip-rule="evenodd" d="M7.69873 5.71562C7.69873 5.97648 7.71746 6.2326 7.75183 6.48242H18.2236C18.258 6.2326 18.2799 5.97648 18.2799 5.71562C18.2799 2.77192 15.9111 0.383302 12.9893 0.383302C10.0674 0.383302 7.69873 2.77192 7.69873 5.71562ZM10.9362 3.19533H15.0393C15.5049 3.19533 15.8861 3.5781 15.8861 4.04813C15.8861 4.51817 15.5049 4.90346 15.0393 4.90346H10.9362C10.4706 4.90346 10.0893 4.51817 10.0893 4.04813C10.0893 3.5781 10.4706 3.19533 10.9362 3.19533Z" fill="#FFC91D"/>
<path fill-rule="evenodd" clip-rule="evenodd" d="M18.224 6.48265H6.83663C6.28352 6.48265 5.8335 6.93662 5.8335 7.49424C5.8335 7.9334 6.11475 8.31018 6.50224 8.44785C6.60849 8.48471 6.72101 8.50708 6.83663 8.50708H8.10848H17.8646H19.1365C19.324 8.50708 19.4959 8.45416 19.6459 8.36784C19.9396 8.19299 20.1427 7.86346 20.1427 7.49424C20.1427 6.93662 19.6896 6.48265 19.1365 6.48265H18.224Z" fill="#377DE2"/>
<path fill-rule="evenodd" clip-rule="evenodd" d="M9.66539 14.4635C8.73103 13.4692 8.10604 11.9678 8.10604 9.95563C8.10604 9.89798 8.10916 9.15953 8.10916 8.50741H6.83732C6.7217 8.50741 6.60918 8.48504 6.50293 8.44818V10.9871C6.50293 12.8045 7.90291 14.3094 9.66539 14.4635Z" fill="#6E555E"/>
<path fill-rule="evenodd" clip-rule="evenodd" d="M8.1125 8.50707C8.10938 9.1592 8.10938 9.89764 8.10938 9.9553C8.10938 11.9674 8.73124 13.4689 9.6656 14.4632C9.78747 14.5923 9.91559 14.7155 10.0468 14.8248C11.7531 16.2832 14.2249 16.2832 15.9343 14.8248C16.0624 14.7177 16.1843 14.5983 16.303 14.4754C17.2405 13.4812 17.8718 11.9734 17.8718 9.9553C17.8718 9.88536 17.8686 9.16172 17.8686 8.50707H8.1125Z" fill="#F9C5B8"/>
<path fill-rule="evenodd" clip-rule="evenodd" d="M17.8681 9.95519C17.8681 11.9733 17.2399 13.4811 16.2993 14.4753C18.1524 14.4101 19.6462 12.8655 19.6462 10.9866V8.36772C19.4993 8.45404 19.3243 8.50696 19.1399 8.50696H17.8681C17.8681 9.16161 17.8681 9.88525 17.8681 9.95519Z" fill="#6E555E"/>
<path fill-rule="evenodd" clip-rule="evenodd" d="M15.9334 17.2006V14.8255C14.224 16.2838 11.7521 16.2838 10.0459 14.8255V17.2006C10.0459 18.8324 11.3678 20.1664 12.9896 20.1664C14.6084 20.1664 15.9334 18.8324 15.9334 17.2006Z" fill="#F9C5B8"/>
<path fill-rule="evenodd" clip-rule="evenodd" d="M15.9337 17.1998C15.9337 18.8316 14.6087 20.1655 12.99 20.1655C11.3712 20.1655 10.0462 18.8316 10.0462 17.1998H8.24316V24.405H17.7368V17.1998H15.9337Z" fill="#FFC91D"/>
<path fill-rule="evenodd" clip-rule="evenodd" d="M8.92725 31.6145H17.0521V28.0125H8.92725V31.6145Z" fill="#478CF7"/>
<path fill-rule="evenodd" clip-rule="evenodd" d="M8.9279 28.0125H17.0528V31.6145H19.4278V26.1321V24.4056H17.7372H8.24355H6.5498V26.1321V31.6145H8.9279V28.0125Z" fill="#377DE2"/>
<path fill-rule="evenodd" clip-rule="evenodd" d="M19.4277 24.4056V26.1321H24.7402C25.212 26.1321 25.5964 25.7445 25.5964 25.2707C25.5964 24.7944 25.212 24.4056 24.7402 24.4056H24.2246H19.4277Z" fill="#FFB51A"/>
<path fill-rule="evenodd" clip-rule="evenodd" d="M19.4277 24.405H24.2246V20.6037C24.2246 18.7294 22.7058 17.1998 20.8496 17.1998H19.4277V24.405Z" fill="#FFC91D"/>
<path fill-rule="evenodd" clip-rule="evenodd" d="M19.4277 31.6145H24.2246V26.1321H19.4277V31.6145Z" fill="#F9C5B8"/>
<path fill-rule="evenodd" clip-rule="evenodd" d="M17.7368 24.405H19.4274V17.1998H17.7368V24.405Z" fill="#2266D3"/>
<path fill-rule="evenodd" clip-rule="evenodd" d="M6.5498 24.405H8.24042V17.1998H6.5498V24.405Z" fill="#2266D3"/>
<path fill-rule="evenodd" clip-rule="evenodd" d="M6.54945 24.405V17.1998H5.12758C3.26822 17.1998 1.74951 18.7331 1.74951 20.6037V24.405H6.54945Z" fill="#FFC91D"/>
<path fill-rule="evenodd" clip-rule="evenodd" d="M6.55002 24.4056H1.23758C0.76884 24.4056 0.381348 24.7969 0.381348 25.2707C0.381348 25.7445 0.76884 26.1321 1.23758 26.1321H1.75008H6.55002V24.4056Z" fill="#FFB51A"/>
<path fill-rule="evenodd" clip-rule="evenodd" d="M1.74951 31.6145H6.54945V26.1321H1.74951V31.6145Z" fill="#F9C5B8"/>
<path fill-rule="evenodd" clip-rule="evenodd" d="M27.8809 12.4742C27.8809 13.1424 28.0371 13.7703 28.3184 14.3263C28.5746 14.8445 28.934 15.2985 29.3746 15.6652L27.9871 17.6527L30.3433 17.1949L32.7027 17.6527L31.3152 15.6652C31.7558 15.2985 32.1183 14.8445 32.3746 14.3263C32.6527 13.7703 32.8058 13.1402 32.8058 12.4742C32.8058 12.1151 32.762 11.7619 32.6745 11.4295C32.5652 11.0074 32.3964 10.6174 32.1683 10.2604C31.7402 10.979 31.0839 11.438 30.3433 11.438C29.609 11.438 28.9496 10.979 28.5215 10.2604C28.2965 10.6174 28.1246 11.0074 28.0152 11.4295C27.9277 11.7619 27.8809 12.1151 27.8809 12.4742Z" fill="#939598"/>
<path fill-rule="evenodd" clip-rule="evenodd" d="M28.5181 10.2612C28.9493 10.9773 29.6055 11.4388 30.343 11.4388C31.0836 11.4388 31.7399 10.9773 32.168 10.2612C31.7336 9.56847 31.0993 9.01463 30.343 8.68227C29.5899 9.01463 28.9556 9.56847 28.5181 10.2612Z" fill="#6B6D6F"/>
<path fill-rule="evenodd" clip-rule="evenodd" d="M32.8048 12.4747C32.8048 13.1429 32.6517 13.7708 32.3735 14.3268C32.8485 14.7859 33.511 14.9925 34.1547 14.8904C34.686 14.2223 34.7891 13.2724 34.3391 12.487C33.9767 11.857 33.3423 11.4817 32.6735 11.4301C32.761 11.7624 32.8048 12.1156 32.8048 12.4747Z" fill="#6B6D6F"/>
<path fill-rule="evenodd" clip-rule="evenodd" d="M26.3491 12.4863C25.8991 13.2717 26.0022 14.2215 26.5334 14.8872C27.1772 14.9883 27.8397 14.7826 28.3178 14.3261C28.0366 13.7701 27.8803 13.14 27.8803 12.474C27.8803 12.1124 27.9272 11.7617 28.0147 11.4294C27.3428 11.481 26.7084 11.8562 26.3491 12.4863Z" fill="#6B6D6F"/>
<path fill-rule="evenodd" clip-rule="evenodd" d="M9.6687 14.8473C9.6562 14.8473 9.64683 14.8473 9.63433 14.8473C7.66873 14.6725 6.125 12.9766 6.125 10.9869V8.44798C6.125 8.23502 6.29686 8.06269 6.50311 8.06269C6.71561 8.06269 6.88747 8.23502 6.88747 8.44798V10.9869C6.88747 12.5828 8.12184 13.9425 9.70307 14.0818C9.90932 14.1001 10.0656 14.2872 10.0468 14.4964C10.0281 14.6971 9.86557 14.8473 9.6687 14.8473ZM16.2999 14.8596C16.0936 14.8596 15.9249 14.6971 15.9186 14.4879C15.9124 14.2749 16.078 14.1001 16.2874 14.0903C17.9311 14.0349 19.2654 12.6421 19.2654 10.9869V8.36797C19.2654 8.155 19.4342 7.98393 19.6467 7.98393C19.8561 7.98393 20.028 8.155 20.028 8.36797V10.9869C20.028 13.0504 18.3592 14.7894 16.3124 14.8571C16.3061 14.8596 16.303 14.8596 16.2999 14.8596Z" fill="black"/>
<path fill-rule="evenodd" clip-rule="evenodd" d="M26.8527 15.2969C26.7277 15.2969 26.5996 15.2884 26.4746 15.2698C26.3809 15.254 26.2965 15.2046 26.2371 15.1309C25.5965 14.3272 25.509 13.1902 26.0215 12.298C26.4309 11.5782 27.1652 11.1129 27.9871 11.0451C28.1965 11.0303 28.3777 11.1866 28.3934 11.3983C28.4121 11.6113 28.2527 11.7959 28.0465 11.8119C27.4746 11.8573 26.9621 12.1812 26.6809 12.6795C26.3496 13.2542 26.3777 13.9803 26.7402 14.5279C27.2215 14.5587 27.7059 14.3864 28.0527 14.0503C28.2059 13.9038 28.4465 13.9101 28.5934 14.0626C28.7371 14.2179 28.7308 14.4601 28.5777 14.6079C28.1152 15.0508 27.4871 15.2969 26.8527 15.2969Z" fill="black"/>
<path fill-rule="evenodd" clip-rule="evenodd" d="M33.8364 15.2969C33.1989 15.2969 32.574 15.0508 32.1115 14.6054C31.9584 14.4601 31.9521 14.2179 32.0958 14.0626C32.2427 13.9101 32.4833 13.9038 32.6365 14.0503C32.9865 14.3864 33.4677 14.5587 33.949 14.5279C34.3115 13.9803 34.3396 13.258 34.0083 12.6795C33.7239 12.1812 33.2146 11.8573 32.6458 11.8119C32.4333 11.7959 32.2802 11.6113 32.2927 11.3983C32.3083 11.1866 32.4927 11.0303 32.7021 11.0451C33.5239 11.1129 34.2583 11.5782 34.6677 12.2943C35.1802 13.1864 35.0927 14.3272 34.4521 15.1309C34.3896 15.2046 34.3083 15.254 34.2146 15.2663C34.0896 15.2884 33.9614 15.2969 33.8364 15.2969Z" fill="black"/>
<path fill-rule="evenodd" clip-rule="evenodd" d="M29.6774 15.8967L28.8399 17.099L30.2712 16.8184C30.3212 16.8098 30.368 16.8098 30.4149 16.8184L31.8492 17.099L31.0086 15.893C30.9868 15.8659 30.9711 15.8315 30.9586 15.7946C30.9024 15.6445 30.9493 15.4722 31.0743 15.3701C31.9305 14.6524 32.4243 13.598 32.4243 12.4743C32.4243 11.0418 31.6149 9.73755 30.343 9.10622C29.0743 9.73755 28.2618 11.0418 28.2618 12.4743C28.2618 13.598 28.7586 14.6524 29.618 15.3701C29.7399 15.4747 29.7868 15.6445 29.7336 15.7946C29.718 15.8315 29.6993 15.8659 29.6774 15.8967ZM32.7023 18.038C32.6773 18.038 32.6586 18.0343 32.6336 18.0281L30.343 17.5851L28.0587 18.0281C27.9055 18.0589 27.7493 17.9912 27.6649 17.8583C27.5837 17.7303 27.5868 17.5605 27.6743 17.4313L28.868 15.7245C27.9931 14.8717 27.5024 13.7086 27.5024 12.4743C27.5024 10.6776 28.5587 9.05077 30.193 8.33091C30.2899 8.28775 30.3993 8.28775 30.4961 8.33091C32.1305 9.05077 33.1867 10.6751 33.1867 12.4743C33.1867 13.7086 32.693 14.8717 31.8211 15.7245L33.0148 17.4313C33.1055 17.5605 33.1086 17.7266 33.0242 17.8583C32.9524 17.9703 32.8305 18.038 32.7023 18.038Z" fill="black"/>
<path fill-rule="evenodd" clip-rule="evenodd" d="M30.3427 11.8241C29.4958 11.8241 28.7115 11.3257 28.1959 10.4581C28.0865 10.276 28.1428 10.0422 28.324 9.93135C28.5052 9.82046 28.7396 9.88221 28.8458 10.0605C29.224 10.6944 29.7708 11.0548 30.3427 11.0548C30.9208 11.0548 31.4677 10.6944 31.8427 10.0605C31.952 9.88221 32.1833 9.82046 32.3646 9.93135C32.5427 10.0422 32.6021 10.276 32.4958 10.4581C31.9771 11.3257 31.1927 11.8241 30.3427 11.8241Z" fill="black"/>
<path fill-rule="evenodd" clip-rule="evenodd" d="M12.9895 20.5507C11.1583 20.5507 9.66455 19.0469 9.66455 17.1997V14.8245C9.66455 14.6128 9.83641 14.4405 10.0458 14.4405C10.2552 14.4405 10.4239 14.6128 10.4239 14.8245V17.1997C10.4239 18.6247 11.577 19.7815 12.9895 19.7815C14.402 19.7815 15.552 18.6247 15.552 17.1997V14.8245C15.552 14.6128 15.7239 14.4405 15.9301 14.4405C16.1395 14.4405 16.3114 14.6128 16.3114 14.8245V17.1997C16.3114 19.0469 14.8207 20.5507 12.9895 20.5507Z" fill="black"/>
<path fill-rule="evenodd" clip-rule="evenodd" d="M12.9895 16.3029C11.602 16.3029 10.3114 15.7293 9.35514 14.6906C8.28953 13.5341 7.72705 11.8959 7.72705 9.9553C7.72705 9.89765 7.72705 9.1592 7.73018 8.50707C7.73018 8.29411 7.90204 8.12178 8.11142 8.12178C8.32391 8.12556 8.48952 8.29411 8.48952 8.50707C8.48952 9.16172 8.4864 9.89765 8.4864 9.9553C8.4864 13.7887 10.8208 15.5362 12.9895 15.5362C15.1551 15.5362 17.4863 13.7924 17.4863 9.9553C17.4863 9.88756 17.4863 9.16518 17.4832 8.50707C17.4832 8.29411 17.655 8.12178 17.8644 8.12178C18.0769 8.12178 18.2426 8.29159 18.2457 8.50329C18.2488 9.16172 18.2488 9.88536 18.2488 9.9553C18.2488 11.8959 17.6863 13.5341 16.6238 14.6906C15.6644 15.7293 14.3738 16.3029 12.9895 16.3029Z" fill="black"/>
<path fill-rule="evenodd" clip-rule="evenodd" d="M1.7492 24.7911C1.54295 24.7911 1.37109 24.6188 1.37109 24.4059V20.6045C1.37109 18.515 3.05542 16.8167 5.12727 16.8167H10.046C10.2553 16.8167 10.4241 16.989 10.4241 17.2007C10.4241 17.4098 10.2553 17.5821 10.046 17.5821H5.12727C3.47729 17.5821 2.13044 18.9395 2.13044 20.6045V24.4059C2.13044 24.6188 1.95857 24.7911 1.7492 24.7911ZM24.227 24.7911C24.0177 24.7911 23.8458 24.6188 23.8458 24.4059V20.6045C23.8458 18.9395 22.5052 17.5821 20.849 17.5821H15.9334C15.724 17.5821 15.5522 17.4098 15.5522 17.2007C15.5522 16.989 15.724 16.8167 15.9334 16.8167H20.849C22.9208 16.8167 24.6083 18.515 24.6083 20.6045V24.4059C24.6083 24.6188 24.4364 24.7911 24.227 24.7911ZM24.227 32H1.7492C1.54295 32 1.37109 31.8277 1.37109 31.6148V26.1324C1.37109 25.9208 1.54295 25.751 1.7492 25.751C1.95857 25.751 2.13044 25.9208 2.13044 26.1324V31.2333H23.8458V26.1324C23.8458 25.9208 24.0177 25.751 24.227 25.751C24.4364 25.751 24.6083 25.9208 24.6083 26.1324V31.6148C24.6083 31.8277 24.4364 32 24.227 32Z" fill="black"/>
<path fill-rule="evenodd" clip-rule="evenodd" d="M8.24295 24.7905H6.54921C6.33983 24.7905 6.16797 24.6183 6.16797 24.4054V17.1977C6.16797 16.9884 6.33983 16.8161 6.54921 16.8161C6.7617 16.8161 6.93044 16.9884 6.93044 17.1977V24.0251H7.85855V17.1977C7.85855 16.9884 8.03045 16.8161 8.23982 16.8161C8.45232 16.8161 8.62106 16.9884 8.62106 17.1977V24.4054C8.62106 24.6183 8.45232 24.7905 8.24295 24.7905Z" fill="black"/>
<path fill-rule="evenodd" clip-rule="evenodd" d="M19.4273 24.7905H17.7367C17.5274 24.7905 17.3555 24.6183 17.3555 24.4054V17.1977C17.3555 16.9884 17.5274 16.8161 17.7367 16.8161C17.9461 16.8161 18.1149 16.9884 18.1149 17.1977V24.0251H19.0461V17.1977C19.0461 16.9884 19.2179 16.8161 19.4273 16.8161C19.6398 16.8161 19.8086 16.9884 19.8086 17.1977V24.4054C19.8086 24.6183 19.6398 24.7905 19.4273 24.7905Z" fill="black"/>
<path fill-rule="evenodd" clip-rule="evenodd" d="M6.93044 31.2333H19.0459V24.7911H6.93044V31.2333ZM19.4272 32H6.54921C6.33983 32 6.16797 31.8277 6.16797 31.6148V24.4096C6.16797 24.1967 6.33983 24.0256 6.54921 24.0256H19.4272C19.6397 24.0256 19.8084 24.1967 19.8084 24.4096V31.6148C19.8084 31.8277 19.6397 32 19.4272 32Z" fill="black"/>
<path fill-rule="evenodd" clip-rule="evenodd" d="M9.30573 31.2333H16.6713V28.3968H9.30573V31.2333ZM17.0525 32H8.92762C8.71513 32 8.54639 31.8277 8.54639 31.6148V28.0128C8.54639 27.7999 8.71513 27.6276 8.92762 27.6276H17.0525C17.2619 27.6276 17.4338 27.7999 17.4338 28.0128V31.6148C17.4338 31.8277 17.2619 32 17.0525 32Z" fill="black"/>
<path fill-rule="evenodd" clip-rule="evenodd" d="M24.7396 26.5175H19.4271C19.2178 26.5175 19.0459 26.3452 19.0459 26.1323C19.0459 25.9206 19.2178 25.7508 19.4271 25.7508H24.7396C25.0021 25.7508 25.2177 25.5354 25.2177 25.2709C25.2177 25.0063 25.0021 24.7909 24.7396 24.7909H19.4271C19.2178 24.7909 19.0459 24.6186 19.0459 24.4094C19.0459 24.1965 19.2178 24.0254 19.4271 24.0254H24.7396C25.4239 24.0254 25.9771 24.5854 25.9771 25.2709C25.9771 25.9563 25.4239 26.5175 24.7396 26.5175Z" fill="black"/>
<path fill-rule="evenodd" clip-rule="evenodd" d="M6.54991 26.5175H1.23747C0.556231 26.5175 0 25.9563 0 25.2709C0 24.5854 0.556231 24.0254 1.23747 24.0254H6.54991C6.76241 24.0254 6.93115 24.1965 6.93115 24.4094C6.93115 24.6186 6.76241 24.7909 6.54991 24.7909H1.23747C0.974976 24.7909 0.762473 25.0063 0.762473 25.2709C0.762473 25.5354 0.974976 25.7508 1.23747 25.7508H6.54991C6.76241 25.7508 6.93115 25.9206 6.93115 26.1323C6.93115 26.3452 6.76241 26.5175 6.54991 26.5175Z" fill="black"/>
<path fill-rule="evenodd" clip-rule="evenodd" d="M24.2269 20.9879C24.0176 20.9879 23.8457 20.8156 23.8457 20.604V6.46038C23.8457 4.55063 25.3894 2.99623 27.2863 2.99623C29.18 2.99623 30.7237 4.55063 30.7237 6.46038V8.68171C30.7237 8.89468 30.555 9.067 30.3425 9.067C30.1331 9.067 29.9613 8.89468 29.9613 8.68171V6.46038C29.9613 4.9753 28.7644 3.76303 27.2832 3.76303C25.8082 3.76303 24.6051 4.9753 24.6051 6.46038V20.604C24.6082 20.8156 24.4363 20.9879 24.2269 20.9879Z" fill="black"/>
<path fill-rule="evenodd" clip-rule="evenodd" d="M6.8373 6.86603C6.49668 6.86603 6.21544 7.14547 6.21544 7.4939C6.21544 7.83823 6.49668 8.12145 6.8373 8.12145H19.1403C19.484 8.12145 19.7653 7.83823 19.7653 7.4939C19.7653 7.14547 19.484 6.86603 19.1403 6.86603H6.8373ZM19.1403 8.88794H6.8373C6.07481 8.88794 5.45605 8.2629 5.45605 7.4939C5.45605 6.72458 6.07481 6.09702 6.8373 6.09702H19.1403C19.9059 6.09702 20.5246 6.72458 20.5246 7.4939C20.5246 8.2629 19.9059 8.88794 19.1403 8.88794Z" fill="black"/>
<path fill-rule="evenodd" clip-rule="evenodd" d="M7.75225 6.86661C7.56475 6.86661 7.40539 6.72894 7.37727 6.53834C7.33664 6.26615 7.31787 5.98923 7.31787 5.7161C7.31787 2.56572 9.8616 6.24657e-05 12.9897 6.24657e-05C16.1178 6.24657e-05 18.6584 2.56572 18.6584 5.7161C18.6584 5.98923 18.6396 6.26363 18.6021 6.53834C18.5709 6.74753 18.3771 6.8915 18.1709 6.8644C17.9615 6.83227 17.8209 6.63537 17.8459 6.42745C17.8803 6.19369 17.899 5.95237 17.899 5.71987C17.899 2.99039 15.6959 0.769066 12.9897 0.769066C10.2803 0.769066 8.07725 2.99039 8.07725 5.71987C8.07725 5.95237 8.09602 6.19369 8.13039 6.42745C8.16164 6.63537 8.01788 6.83227 7.80538 6.8644C7.78976 6.8644 7.771 6.86661 7.75225 6.86661Z" fill="black"/>
<path fill-rule="evenodd" clip-rule="evenodd" d="M10.9364 3.5789C10.6771 3.5789 10.4708 3.79061 10.4708 4.04894C10.4708 4.30979 10.6771 4.51897 10.9364 4.51897H15.0395C15.2989 4.51897 15.5051 4.30979 15.5051 4.04894C15.5051 3.79061 15.2989 3.5789 15.0395 3.5789H10.9364ZM15.0395 5.28955H10.9364C10.2614 5.28955 9.71143 4.73194 9.71143 4.04894C9.71143 3.36972 10.2614 2.8121 10.9364 2.8121H15.0395C15.7176 2.8121 16.2676 3.36972 16.2676 4.04894C16.2676 4.73194 15.7176 5.28955 15.0395 5.28955Z" fill="black"/>
</svg>
