<svg width="32" height="32" viewBox="0 0 32 32" fill="none" xmlns="http://www.w3.org/2000/svg">
<path d="M14.3023 6.32914L5.98828 12.059V6.32914H14.3023Z" fill="#2293A7"/>
<path d="M22.674 12.059H14.3018V6.32914L22.674 12.059Z" fill="#2293A7"/>
<path d="M22.674 0.598611V6.32843H14.3018L22.674 0.598611Z" fill="#2293A7"/>
<path d="M14.3023 0.598611V6.32843L5.98828 0.598611H14.3023Z" fill="#2293A7"/>
<path d="M22.674 0.598611L14.3018 6.32843V0.598611H22.674Z" fill="white"/>
<path d="M22.674 6.32914V12.059L14.3018 6.32914H22.674Z" fill="white"/>
<path d="M14.3023 6.32914V12.059H5.98828L14.3023 6.32914Z" fill="white"/>
<path d="M14.3023 6.32843H5.98828V0.598611L14.3023 6.32843Z" fill="white"/>
<path d="M24.1274 19.9672H18.3137V16.3572H20.5228C21.5112 16.3572 22.4413 16.7579 23.0808 17.3888C23.7203 18.0764 24.1274 18.9931 24.1274 19.9672Z" fill="white"/>
<path d="M14.3027 16.3572V19.9672H7.44238V16.3572H14.3027Z" fill="white"/>
<path d="M14.3018 16.3572H18.3135V19.9672H14.3018V16.3572Z" fill="white"/>
<path d="M0.581055 27.1294V19.9674L1.62765 19.4514C2.8484 18.8211 5.23223 18.5347 6.62771 18.5347H7.44137V19.9674H14.3599H18.3716H24.1853H31.3944C31.3944 24.7231 24.5924 27.1294 19.7671 27.1294H0.581055Z" fill="#2293A7"/>
<path d="M14.302 20.5395C13.9537 20.5395 13.7207 20.3099 13.7207 19.9666V0.599365C13.7207 0.255531 13.9537 0.0265064 14.302 0.0265064C14.6508 0.0265064 14.8832 0.255531 14.8832 0.599365V19.9666C14.8832 20.2531 14.6508 20.5395 14.302 20.5395Z" fill="#001518"/>
<path d="M24.1273 20.5395C23.7784 20.5395 23.5455 20.3099 23.5455 19.9666C23.5455 19.1641 23.2554 18.4191 22.6741 17.8462C22.0923 17.2728 21.3364 16.9869 20.5227 16.9869H8.02287V18.5913C8.02287 18.9345 7.79048 19.1642 7.44161 19.1642C7.09274 19.1642 6.86035 18.9345 6.86035 18.5913V16.414C6.86035 16.0696 7.09274 15.8406 7.44161 15.8406H20.5227C21.627 15.8406 22.7318 16.2992 23.4878 17.0437C24.3014 17.8462 24.7085 18.8777 24.7085 19.9666C24.7085 20.2531 24.4762 20.5395 24.1273 20.5395Z" fill="#001518"/>
<path d="M1.16252 26.5559H19.7673C24.1855 26.5559 30.2316 24.4935 30.7546 20.5397H7.44157C7.0927 20.5397 6.86031 20.3101 6.86031 19.9668V19.1069H6.62791C5.1742 19.1069 2.9651 19.4508 1.86026 19.9668L1.16252 20.3101V26.5559ZM19.7673 27.7017H0.581259C0.232391 27.7017 0 27.4726 0 27.1288V19.9668C0 19.7372 0.116498 19.5656 0.348885 19.4508L1.39489 18.9347C2.79036 18.2471 5.2901 17.9606 6.68557 17.9606H7.4998C7.84867 17.9606 8.08106 18.1902 8.08106 18.5341V19.3934H31.3946C31.7429 19.3934 31.9759 19.6224 31.9759 19.9668C31.9759 22.3157 30.464 24.3781 27.6736 25.8109C25.4062 27.014 22.4412 27.7017 19.7673 27.7017Z" fill="#001518"/>
<path d="M7.44124 16.9301H4.53438C4.18552 16.9301 3.95312 16.7011 3.95312 16.3572C3.95312 16.0134 4.18552 15.7838 4.53438 15.7838H7.44124C7.79011 15.7838 8.0225 16.0134 8.0225 16.3572C8.0225 16.7011 7.73244 16.9301 7.44124 16.9301Z" fill="#001518"/>
<path d="M18.3135 20.5395C17.9647 20.5395 17.7317 20.3099 17.7317 19.9666V16.3566C17.7317 16.0128 17.9647 15.7832 18.3135 15.7832C18.6624 15.7832 18.8948 16.0128 18.8948 16.3566V19.9666C18.8948 20.2531 18.6624 20.5395 18.3135 20.5395Z" fill="#001518"/>
<path d="M5.87123 31.9995C5.17349 31.9995 4.41751 31.7705 3.66211 31.1402C3.1391 30.739 2.67377 30.5094 2.26666 30.5668C1.68483 30.6247 1.33651 31.0828 1.33651 31.0828C1.16179 31.3124 0.755267 31.3693 0.52288 31.197C0.289917 31.0254 0.231689 30.6247 0.405835 30.3951C0.464075 30.3377 1.10357 29.5927 2.15017 29.4784C2.90615 29.421 3.66212 29.7075 4.41752 30.3377C5.92947 31.5988 7.44084 30.3951 7.49908 30.3377L7.55734 30.2803C7.615 30.2803 8.25507 29.8223 9.1852 29.5927C10.4642 29.2494 11.5102 29.5358 12.1503 30.3951C13.0804 31.5988 15.8708 30.2235 15.8708 30.2235C16.162 30.0513 16.5103 30.1661 16.6267 30.4525C16.8009 30.739 16.685 31.0828 16.3944 31.197C16.2196 31.2544 12.7898 33.031 11.2196 31.0254C10.3477 29.9371 8.42979 30.968 8.19683 31.1402C7.73205 31.5415 6.85959 31.9995 5.87123 31.9995Z" fill="#001518"/>
<path d="M21.1622 31.9995C20.4644 31.9995 19.7084 31.7705 18.953 31.1402C18.4295 30.739 17.9647 30.5094 17.5576 30.5668C16.9763 30.6247 16.6274 31.0828 16.6274 31.0828C16.4533 31.3124 16.0462 31.3693 15.8132 31.197C15.5808 31.0254 15.5226 30.6247 15.6973 30.3951C15.7556 30.3377 16.3951 29.5927 17.4411 29.4784C18.1971 29.421 18.9531 29.7075 19.7085 30.3377C21.2204 31.5988 22.7318 30.3951 22.79 30.3377L22.8477 30.2803C22.9065 30.2803 23.5454 29.8223 24.4761 29.5927C25.7551 29.2494 26.8017 29.5358 27.4412 30.3951C28.3713 31.5988 31.1617 30.2235 31.1617 30.2235C31.4523 30.0513 31.8018 30.1661 31.9177 30.4525C32.0924 30.739 31.9759 31.0828 31.6853 31.197C31.5106 31.2544 28.0807 33.031 26.5111 31.0254C25.6386 29.9371 23.7201 30.968 23.4878 31.1402C23.0224 31.5415 22.1505 31.9995 21.1622 31.9995Z" fill="#001518"/>
<path d="M21.2208 24.8374H0.872274C0.523983 24.8374 0.291016 24.6084 0.291016 24.2645C0.291016 23.9207 0.523983 23.6911 0.872274 23.6911H21.2208C21.5696 23.6911 21.802 23.9207 21.802 24.2645C21.802 24.551 21.5696 24.8374 21.2208 24.8374Z" fill="#001518"/>
<path d="M6.56933 11.4865H22.0919V1.17201H6.56933V11.4865ZM22.6738 12.6322H5.98751C5.63922 12.6322 5.40625 12.4032 5.40625 12.0593V0.599705C5.40625 0.255871 5.63922 0.0268469 5.98751 0.0268469H22.6738C23.022 0.0268469 23.255 0.255871 23.255 0.599705V12.0593C23.255 12.4032 23.022 12.6322 22.6738 12.6322Z" fill="#001518"/>
<path d="M5.98787 12.6322C5.81373 12.6322 5.63956 12.5754 5.52366 12.4032C5.34894 12.1167 5.40662 11.7729 5.63958 11.6007L22.3835 0.141067C22.6741 -0.0311346 23.0224 0.0268354 23.1971 0.255869C23.3719 0.542302 23.3131 0.885574 23.0807 1.05778L6.33732 12.5174C6.22026 12.6322 6.10435 12.6322 5.98787 12.6322Z" fill="#001518"/>
<path d="M22.6741 12.6322C22.5576 12.6322 22.4411 12.5754 22.3246 12.5174L5.58127 1.05778C5.29007 0.885575 5.23241 0.542303 5.46479 0.25587C5.63951 -0.0311327 5.98781 -0.087966 6.27902 0.141068L23.0224 11.6007C23.313 11.7729 23.3718 12.1167 23.1388 12.4032C23.0224 12.5754 22.8476 12.6322 22.6741 12.6322Z" fill="#001518"/>
<path d="M22.6738 6.90265H5.98751C5.63922 6.90265 5.40625 6.67361 5.40625 6.32978C5.40625 5.98594 5.63922 5.7569 5.98751 5.7569H22.6738C23.022 5.7569 23.255 5.98594 23.255 6.32978C23.255 6.67361 23.022 6.90265 22.6738 6.90265Z" fill="#001518"/>
<path d="M16.8603 22.6596H16.1037C15.7554 22.6596 15.5225 22.4306 15.5225 22.0867C15.5225 21.7429 15.7554 21.5133 16.1037 21.5133H16.8603C17.2086 21.5133 17.4409 21.7429 17.4409 22.0867C17.4409 22.4306 17.2086 22.6596 16.8603 22.6596Z" fill="#001518"/>
<path d="M19.7678 22.6596H19.0118C18.6629 22.6596 18.4299 22.4306 18.4299 22.0867C18.4299 21.7429 18.6629 21.5133 19.0118 21.5133H19.7678C20.116 21.5133 20.3484 21.7429 20.3484 22.0867C20.3484 22.4306 20.116 22.6596 19.7678 22.6596Z" fill="#001518"/>
<path d="M22.674 22.6596H21.918C21.5691 22.6596 21.3362 22.4306 21.3362 22.0867C21.3362 21.7429 21.5691 21.5133 21.918 21.5133H22.674C23.0223 21.5133 23.2552 21.7429 23.2552 22.0867C23.2552 22.4306 23.0223 22.6596 22.674 22.6596Z" fill="#001518"/>
<path d="M25.5812 22.6596H24.8253C24.4764 22.6596 24.2434 22.4306 24.2434 22.0867C24.2434 21.7429 24.4764 21.5133 24.8253 21.5133H25.5812C25.9295 21.5133 26.1625 21.7429 26.1625 22.0867C26.1625 22.4306 25.9295 22.6596 25.5812 22.6596Z" fill="#001518"/>
</svg>
