<svg width="27" height="32" viewBox="0 0 27 32" fill="none" xmlns="http://www.w3.org/2000/svg">
<path d="M7.12401 8.94546C7.23047 8.94546 7.33693 8.94546 7.44286 8.94546C8.61234 8.78634 10.2593 7.93648 11.4283 7.08609C11.6406 7.08609 11.8536 7.1393 12.066 7.1393C12.2257 8.20201 13.7662 8.89277 15.4664 9.31744C16.1041 10.1673 16.4229 11.23 16.4229 12.3981C16.4229 15.3202 14.0318 17.7106 11.1094 17.7106C8.18702 17.7106 5.7959 15.3202 5.7959 12.3981C5.8486 11.0704 6.32714 9.84853 7.12401 8.94546Z" fill="white"/>
<path d="M4.09485 23.2887L5.95421 29.1324L6.32628 30.3005L0.959555 31.4696L0.534239 25.1481C0.481536 24.4041 0.959547 23.7139 1.65048 23.4484L3.88193 22.7044L4.09485 23.2887Z" fill="white"/>
<path d="M14.8814 25.041C14.8814 25.2006 14.8814 25.3597 14.8282 25.5194C15.9439 24.5631 18.0694 23.3413 19.504 23.1289C20.1949 23.0225 21.5763 23.2881 21.6295 24.2976C21.7354 25.8908 15.253 29.6628 13.3404 29.8219C10.2051 30.0348 9.46094 28.0158 5.95409 29.1317L4.09473 23.288C4.57274 23.0757 6.43262 22.4914 6.85741 22.4382C8.55813 22.0662 14.6153 22.757 14.8814 24.9351C14.8814 24.9351 14.8814 24.9878 14.8814 25.041Z" fill="#2293A7"/>
<path d="M26.4659 6.927C26.5191 7.67043 26.0406 8.36116 25.3496 8.62671L23.1182 9.37067L22.9058 8.78636L21.0459 2.94272L20.6738 1.72089L26.0406 0.552802L26.4659 6.927Z" fill="white"/>
<path d="M7.44271 8.89281C7.33677 8.89281 7.23031 8.89281 7.12385 8.89281C6.38021 8.89281 5.42365 8.57405 5.37042 7.72367C5.26449 6.12985 11.747 2.35844 13.6601 2.19932C16.7948 1.98699 17.539 4.00546 21.0458 2.89005L22.9057 8.73315C22.4272 8.94548 20.5673 9.52981 20.1425 9.58303C19.2924 9.74215 17.2729 9.68944 15.5194 9.26425C13.8192 8.83958 12.2782 8.14885 12.1185 7.08613C12.1185 7.03345 12.1185 6.98023 12.1185 6.92702C12.1185 6.76737 12.1185 6.60825 12.1723 6.4486C11.9593 6.60825 11.7469 6.82057 11.4813 6.98022C10.3124 7.88329 8.66489 8.73316 7.44271 8.89281Z" fill="#2293A7"/>
<path d="M13.3413 26.5291C12.2783 26.5291 11.0029 26.2104 9.88718 25.8916C9.83395 25.8916 9.78071 25.8389 9.72801 25.8389C9.46186 25.7857 9.3027 25.4669 9.35593 25.2014C9.40916 24.9358 9.72801 24.7762 9.99364 24.8294C10.0469 24.8294 10.0996 24.8826 10.206 24.8826C13.1284 25.7325 13.9785 25.5201 14.2974 25.3073C14.3506 25.2541 14.4038 25.2014 14.4038 25.0417C14.4038 24.7235 14.6694 24.5106 14.9883 24.5639C15.3071 24.5639 15.5195 24.8294 15.4663 25.1482C15.4663 25.5728 15.2539 25.9448 14.8824 26.2104C14.5103 26.4232 13.9785 26.5291 13.3413 26.5291Z" fill="#001518"/>
<path d="M14.8816 25.5721C14.5628 25.5721 14.3499 25.3065 14.3499 24.9878C14.3499 24.9351 14.3499 24.8819 14.3499 24.8287C14.2967 24.5631 14.5096 24.2976 14.8284 24.2444C15.0939 24.1911 15.4127 24.404 15.4127 24.669C15.4127 24.8286 15.4127 24.9351 15.4127 25.041C15.4127 25.3597 15.2003 25.5721 14.8816 25.5721Z" fill="#001518"/>
<path d="M12.8617 30.3544C11.6927 30.3544 10.8426 30.0356 10.0458 29.7701C8.93003 29.3449 7.97347 29.0261 6.11359 29.6104C5.84744 29.7168 5.52912 29.5572 5.42266 29.2917C5.31672 29.0261 5.47589 28.7074 5.74151 28.6009C7.92025 27.9102 9.1419 28.3354 10.3646 28.7606C11.2147 29.0793 12.0116 29.3449 13.2338 29.2917C14.0306 29.2384 16.0497 28.3354 17.9096 27.1667C20.3007 25.6261 21.0981 24.6166 21.0449 24.3511C21.0449 24.2452 20.9916 24.1388 20.8325 23.9797C20.5136 23.7141 19.9286 23.6077 19.5038 23.6609C18.1757 23.82 16.1561 24.9886 15.0936 25.9449C14.8812 26.1046 14.6151 26.1046 14.4559 25.9981C14.2435 25.839 14.1903 25.5729 14.2962 25.3606C14.2962 25.3074 14.3495 25.2542 14.3495 25.1483C14.3495 25.095 14.3495 25.095 14.3495 25.0418C14.2962 24.7763 14.1371 24.5108 13.765 24.2452C12.1713 23.1298 8.2391 22.7046 6.96369 22.9701C6.5389 23.0766 4.73173 23.6077 4.30694 23.82C4.04132 23.9264 3.72246 23.82 3.616 23.5544C3.50954 23.2889 3.616 22.9701 3.88162 22.8642C4.41287 22.5982 6.32598 22.0671 6.7513 21.9606C8.2391 21.6419 12.4901 22.0671 14.4027 23.3953C14.8812 23.7141 15.2001 24.1388 15.3593 24.5107C16.6347 23.6609 18.2816 22.811 19.5038 22.6514C20.0883 22.5455 21.0449 22.7046 21.6293 23.183C22.0009 23.4486 22.2138 23.8732 22.2138 24.2984C22.267 24.8295 21.8949 25.467 21.0449 26.2105C20.4071 26.7948 19.5571 27.4323 18.5473 28.0698C16.8471 29.1325 14.5624 30.3006 13.3929 30.3544C13.1805 30.3544 13.0214 30.3544 12.8617 30.3544Z" fill="#001518"/>
<path d="M3.5639 23.3411L1.86318 23.9254C1.38516 24.0851 1.06632 24.563 1.11955 25.0408L1.49109 30.778L5.68889 29.875L3.5639 23.3411ZM0.959857 31.9999C0.853397 31.9999 0.747461 31.9467 0.641001 31.8934C0.534542 31.7875 0.428607 31.6811 0.428607 31.5215L0.00329109 25.2005C-0.0494118 24.191 0.534535 23.2879 1.49109 22.9692L3.72307 22.2257C3.88223 22.1725 3.98869 22.1725 4.14785 22.2784C4.25431 22.3316 4.36078 22.4381 4.41348 22.5972L6.85783 30.1405C6.91106 30.2996 6.91106 30.4593 6.8046 30.5657C6.7519 30.6722 6.59221 30.7781 6.43305 30.8313L1.06632 31.9999C1.06632 31.9999 1.01309 31.9999 0.959857 31.9999Z" fill="#001518"/>
<path d="M12.1176 7.51099C12.0649 7.51099 12.0649 7.51099 12.1176 7.51099C11.7993 7.51099 11.5869 7.24545 11.5869 6.92668C11.5869 6.50202 11.7993 6.12951 12.1714 5.86448C13.1807 5.12053 15.3594 5.59895 17.166 6.12952C17.2193 6.12952 17.272 6.18326 17.3252 6.18326C17.5908 6.23595 17.7505 6.55471 17.6973 6.82025C17.6441 7.0858 17.3252 7.24545 17.0596 7.19223C17.0064 7.19223 16.9531 7.13901 16.8472 7.13901C13.9248 6.28915 13.0742 6.502 12.7553 6.71434C12.7026 6.76702 12.6494 6.82024 12.6494 6.97989C12.5962 7.29865 12.3838 7.51099 12.1176 7.51099Z" fill="#001518"/>
<path d="M12.1175 7.77612C11.8525 7.77612 11.6396 7.56379 11.5869 7.35093C11.5869 7.29825 11.5869 7.24503 11.5869 7.19182C11.5869 7.08539 11.5869 7.03268 11.5869 6.97947C11.5869 6.66071 11.8525 6.44785 12.1712 6.5016C12.49 6.5016 12.7023 6.76662 12.6491 7.08538C12.6491 7.08538 12.6491 7.1386 12.6491 7.19182V7.24502C12.7023 7.51057 12.49 7.82935 12.2244 7.82935C12.1712 7.77613 12.1175 7.77612 12.1175 7.77612Z" fill="#001518"/>
<path d="M23.118 9.84821C23.0115 9.84821 22.9583 9.84819 22.8524 9.79498C22.7459 9.74176 22.6394 9.63586 22.5867 9.47674L22.3738 8.89244C22.2679 8.62636 22.4271 8.30761 22.6927 8.2017C22.9583 8.09527 23.2772 8.25491 23.3836 8.52046V8.57366L25.0838 7.98884C25.5624 7.82972 25.8812 7.3513 25.828 6.87341L25.4559 1.13623L21.2581 2.03929L21.471 2.67682C21.577 2.94237 21.4173 3.26115 21.1522 3.36758C20.886 3.47348 20.5672 3.31435 20.4612 3.0488L20.1424 1.88017C20.0892 1.72052 20.0892 1.56141 20.1956 1.45498C20.2488 1.34908 20.408 1.24265 20.5672 1.18944L25.9339 0.0208311C26.0936 -0.0323839 26.2528 0.0208321 26.3592 0.127261C26.4657 0.233691 26.5716 0.339584 26.5716 0.498702L26.9969 6.82021C27.0502 7.82972 26.4657 8.73279 25.5091 9.05156L23.2772 9.79498C23.2245 9.84819 23.1712 9.84821 23.118 9.84821Z" fill="#001518"/>
<path d="M11.1621 18.1891C7.9209 18.1891 5.31738 15.5864 5.31738 12.346C5.31738 10.9646 5.7954 9.63682 6.69872 8.57463C6.91112 8.36177 7.22998 8.30857 7.44237 8.52143C7.65529 8.73376 7.70799 9.05252 7.4956 9.26485C6.75196 10.1147 6.37987 11.2306 6.37987 12.346C6.37987 15.0021 8.50538 17.127 11.1621 17.127C13.8189 17.127 15.9444 15.0021 15.9444 12.346C15.9444 11.3365 15.6255 10.3803 15.0411 9.58363C14.8819 9.31808 14.9346 8.9993 15.1475 8.84018C15.4132 8.68054 15.7315 8.73377 15.8912 8.9461C16.5821 9.9556 16.9537 11.1242 16.9537 12.346C17.0069 15.5864 14.4034 18.1891 11.1621 18.1891Z" fill="#001518"/>
<path d="M12.1177 7.67017H12.065C12.065 7.67017 12.065 7.67017 12.0118 7.67017C11.7994 7.61748 11.6398 7.61748 11.4275 7.61748C11.1087 7.61748 10.8964 7.35141 10.9496 7.03318C10.9496 6.71441 11.2151 6.50208 11.5339 6.55476C11.7462 6.55476 12.0118 6.60799 12.2246 6.60799C12.4902 6.66121 12.7025 6.92675 12.6493 7.19229C12.5961 7.45784 12.3837 7.67017 12.1177 7.67017Z" fill="#001518"/>
<path d="M12.6501 7.08588C12.756 7.7234 13.8723 8.36093 15.6257 8.78612C16.6882 9.05167 17.9636 9.21079 19.0261 9.21079C19.4514 9.21079 19.8235 9.21079 20.0359 9.1581C20.3547 9.10436 21.5237 8.7329 22.2678 8.52057L20.6736 3.63322C20.0891 3.79233 19.5578 3.84556 19.0793 3.84556C18.1233 3.84556 17.3259 3.58001 16.5822 3.31446C15.8381 3.04892 15.0944 2.78336 14.1379 2.78336C13.9782 2.78336 13.8723 2.78336 13.7126 2.78336C12.9157 2.83605 10.8966 3.73966 9.03676 4.90828C6.64563 6.44835 5.84824 7.45786 5.90199 7.72341C5.9547 8.20182 6.69886 8.41414 7.12364 8.41414H7.17687C7.28333 8.41414 7.33657 8.41414 7.3898 8.41414C8.50552 8.25502 10.0992 7.40464 11.1623 6.66121C11.4279 6.50209 11.6403 6.28924 11.8532 6.12959C12.0656 5.97048 12.3312 5.97048 12.4909 6.07691C12.7033 6.23602 12.756 6.50208 12.6501 6.71441C12.6501 6.7671 12.5968 6.82033 12.5968 6.92676C12.6501 6.97997 12.6501 6.97997 12.6501 7.08588C12.6501 7.03319 12.6501 7.03319 12.6501 7.08588ZM19.0261 10.2203C17.9103 10.2203 16.529 10.0606 15.4133 9.79509C13.9255 9.42312 12.1183 8.78612 11.6935 7.56429C10.5778 8.30772 8.8776 9.26399 7.54896 9.42311C7.4425 9.42311 7.28333 9.42311 7.12364 9.42311C6.06115 9.42311 4.8922 8.89254 4.83897 7.77661C4.78574 7.24552 5.15783 6.60799 6.00793 5.86456C6.64563 5.28025 7.49573 4.64272 8.50551 4.0052C10.2057 2.94248 12.4909 1.77386 13.6599 1.72065C13.819 1.72065 13.9782 1.72065 14.1911 1.72065C15.36 1.72065 16.2102 2.03942 17.007 2.30549C17.698 2.57104 18.3357 2.78336 19.1325 2.78336C19.6638 2.78336 20.2488 2.67694 20.9392 2.46461C21.0989 2.4114 21.2048 2.4114 21.3645 2.5173C21.471 2.57104 21.5769 2.67693 21.6301 2.83605L23.49 8.67969C23.5959 8.94524 23.4368 9.21079 23.2244 9.31722C22.6926 9.58277 20.78 10.1138 20.3547 10.2203C19.9294 10.2203 19.5578 10.2203 19.0261 10.2203Z" fill="#001518"/>
<path d="M11.3213 11.0175V11.9206L11.5342 11.9738C11.7466 12.027 11.959 12.0802 12.1719 12.1862C12.3311 12.2394 12.4907 12.3458 12.6499 12.4522C12.7558 12.5581 12.8623 12.7172 12.9688 12.8769C13.022 13.036 13.0747 13.1956 13.0747 13.4612C13.0747 13.7267 13.022 13.9391 12.9155 14.0987C12.8091 14.2578 12.7031 14.4175 12.5434 14.5239C12.3843 14.6298 12.2251 14.7362 12.0122 14.7895C11.7998 14.8427 11.6401 14.8954 11.3745 14.8954V15.692H10.8965V14.8954C10.5776 14.8954 10.2588 14.7895 9.99315 14.683C9.6743 14.5766 9.40868 14.4707 9.19629 14.3111L9.6743 13.3548C9.6743 13.3548 9.72753 13.408 9.83346 13.4612C9.88669 13.5144 9.99315 13.5676 10.1523 13.6203C10.2588 13.6735 10.4179 13.7268 10.5776 13.78C10.7368 13.8332 10.8965 13.8864 11.0556 13.8864V12.9833L10.7368 12.8769C10.5244 12.8237 10.312 12.7173 10.1523 12.6646C9.99315 12.6113 9.83346 12.5049 9.72753 12.3985C9.62107 12.2926 9.56783 12.1862 9.51513 12.027C9.46137 11.8679 9.46137 11.7615 9.46137 11.5491C9.46137 11.3363 9.51513 11.124 9.56783 10.9116C9.67429 10.752 9.78023 10.5929 9.88669 10.4332C10.0464 10.3268 10.2055 10.2209 10.3652 10.1144C10.5244 10.0612 10.7368 10.0085 10.9497 9.95532V9.37102H11.4277V10.0612C11.6933 10.0612 12.0122 10.1677 12.2251 10.2741C12.4907 10.38 12.7031 10.4864 12.8623 10.5929L12.3843 11.4959C12.3843 11.4959 12.3311 11.4427 12.2778 11.3895C12.2251 11.3363 12.1181 11.2831 12.0122 11.2831C11.9063 11.2304 11.7998 11.1772 11.6933 11.124C11.5342 11.0707 11.4277 11.0707 11.3213 11.0175ZM11.3213 13.0892V13.8864C11.6401 13.8864 11.853 13.78 11.853 13.5144C11.853 13.408 11.7998 13.3021 11.6933 13.2489C11.5874 13.1957 11.481 13.1424 11.3213 13.0892ZM11.0024 11.8679V11.0707C10.6836 11.0707 10.5244 11.2304 10.5244 11.4427C10.5244 11.5492 10.5776 11.655 10.6309 11.7083C10.7368 11.7615 10.8432 11.8147 11.0024 11.8679Z" fill="#001518"/>
</svg>
