<svg width="35" height="32" viewBox="0 0 35 32" fill="none" xmlns="http://www.w3.org/2000/svg">
<path fill-rule="evenodd" clip-rule="evenodd" d="M17.6107 23.5592C17.6107 22.4297 16.0012 21.5137 14.0198 21.5137C12.0384 21.5137 10.4351 22.4297 10.4351 23.5592C10.4351 24.6897 12.0384 25.6045 14.0198 25.6045C16.0012 25.6045 17.6107 24.6897 17.6107 23.5592Z" fill="#91B56B"/>
<path fill-rule="evenodd" clip-rule="evenodd" d="M22.1138 22.6293C22.6232 22.6293 23.0389 23.0462 23.0389 23.5601C23.0389 24.075 22.6232 24.4922 22.1138 24.4922C21.6013 24.4922 21.1856 24.075 21.1856 23.5601C21.1856 23.0462 21.6013 22.6293 22.1138 22.6293ZM21.6356 19.1171C19.9042 20.1631 18.7979 21.7622 18.7979 23.5601C18.7979 25.3564 19.9042 26.9581 21.6356 28.0016C23.3014 26.9396 24.6296 25.3935 25.4266 23.5601C24.6296 21.7268 23.3014 20.1804 21.6356 19.1171Z" fill="#91B56B"/>
<path fill-rule="evenodd" clip-rule="evenodd" d="M14.0192 21.5138C16.0006 21.5138 17.6101 22.4298 17.6101 23.5594C17.6101 24.6898 16.0006 25.6046 14.0192 25.6046C12.0378 25.6046 10.4345 24.6898 10.4345 23.5594C10.4345 22.4298 12.0409 21.5138 14.0192 21.5138ZM18.7977 23.5594C18.7977 21.764 19.9041 20.1623 21.6355 19.1163C21.0073 18.7167 20.3354 18.3855 19.6228 18.1331C18.5852 17.7627 17.4695 17.5614 16.3037 17.5614C16.1975 17.5614 16.0944 17.564 15.9912 17.5665C15.6287 17.5775 15.2724 17.6082 14.9161 17.6572C13.3441 17.8779 11.8909 18.4665 10.6439 19.3348C9.89068 19.8585 9.20938 20.4851 8.62808 21.1952V21.1939L3.84326 17.8104L4.58082 21.645L4.94649 23.5594L4.58082 25.4724L3.84326 29.3068L8.62808 25.9236V25.9223C9.02499 26.4054 9.46564 26.8493 9.94068 27.2505C10.8783 28.0316 11.9596 28.6447 13.141 29.0421C14.0504 29.3485 15.0161 29.5265 16.0256 29.5535C16.1162 29.557 16.2069 29.5582 16.3037 29.5582C17.4789 29.5582 18.6071 29.3535 19.654 28.9771C20.3541 28.7244 21.0136 28.3983 21.6355 28.0033C19.9041 26.9573 18.7977 25.3557 18.7977 23.5594Z" fill="#648940"/>
<path fill-rule="evenodd" clip-rule="evenodd" d="M16.3037 17.5614C17.4695 17.5614 18.5852 17.7626 19.6228 18.1331C19.6447 17.9795 19.654 17.8213 19.654 17.6622C19.654 16.2457 18.8352 15.0992 17.8226 15.0992C16.835 15.0992 16.0287 16.1955 15.9912 17.5664C16.0943 17.5639 16.1975 17.5614 16.3037 17.5614Z" fill="#91B56B"/>
<path fill-rule="evenodd" clip-rule="evenodd" d="M14.4883 17.1541C13.2882 15.9461 11.6131 15.6701 10.7474 16.5372C10.0973 17.1908 10.0911 18.3065 10.6442 19.3356C11.8912 18.466 13.3476 17.8786 14.9196 17.6579C14.7915 17.4849 14.6477 17.3145 14.4883 17.1541Z" fill="#91B56B"/>
<path fill-rule="evenodd" clip-rule="evenodd" d="M13.1412 29.0425C11.9629 28.6464 10.8785 28.0332 9.94402 27.2509C9.49398 28.0995 9.49712 29.019 10.0347 29.5599C10.7504 30.2785 12.138 30.0493 13.1349 29.0485L13.1412 29.0425Z" fill="#91B56B"/>
<path fill-rule="evenodd" clip-rule="evenodd" d="M16.0264 29.5544C16.192 30.7317 16.9358 31.6207 17.8234 31.6207C18.836 31.6207 19.6579 30.4739 19.6579 29.0578L19.6548 28.9781C18.6078 29.3545 17.4828 29.5592 16.3045 29.5592C16.2108 29.5592 16.1201 29.5579 16.0264 29.5544Z" fill="#91B56B"/>
<path fill-rule="evenodd" clip-rule="evenodd" d="M23.0393 23.5596C23.0393 23.0457 22.6268 22.6289 22.1143 22.6289C21.6017 22.6289 21.186 23.0457 21.186 23.5596C21.186 24.0745 21.6017 24.4917 22.1143 24.4917C22.6268 24.4917 23.0393 24.0745 23.0393 23.5596Z" fill="#2C353F"/>
<path fill-rule="evenodd" clip-rule="evenodd" d="M19.0577 12.2347C19.8703 12.2347 20.6797 12.7593 21.4923 12.9888L23.4581 8.67224H5.81592L7.51918 12.4099C8.2505 12.6638 8.98807 13.0942 9.71939 13.0942C10.757 13.0942 11.7946 12.2347 12.8322 12.2347C13.8697 12.2347 14.9073 13.0942 15.9449 13.0942C16.9825 13.0942 18.0201 12.2347 19.0577 12.2347Z" fill="#D19A6E"/>
<path fill-rule="evenodd" clip-rule="evenodd" d="M5.81554 8.67261H23.4577L24.4578 6.46882H4.81543L5.81554 8.67261Z" fill="#BC845E"/>
<path fill-rule="evenodd" clip-rule="evenodd" d="M17.7295 4.26517V6.46863H22.5143V4.26517C22.5143 3.76979 22.1111 3.36389 21.6173 3.36389H20.1203H18.6264C18.1327 3.36389 17.7295 3.76979 17.7295 4.26517Z" fill="#71C285"/>
<path fill-rule="evenodd" clip-rule="evenodd" d="M18.6387 1.87385C18.6387 2.69666 19.3044 3.36377 20.1201 3.36377C20.942 3.36377 21.6077 2.69666 21.6077 1.87385C21.6077 1.05105 20.942 0.382692 20.1201 0.382692C19.3044 0.383948 18.6387 1.05105 18.6387 1.87385Z" fill="#F9C5B8"/>
<path fill-rule="evenodd" clip-rule="evenodd" d="M12.3415 6.46863V2.21365L6.90352 3.48286C6.85351 3.49384 6.80664 3.49855 6.75977 3.49855V6.46863H12.3415Z" fill="#D19A6E"/>
<path fill-rule="evenodd" clip-rule="evenodd" d="M6.90357 3.4837L12.3416 2.21449L12.4853 2.18121C12.826 2.10147 13.0416 1.75835 12.9604 1.41743C12.8822 1.0765 12.5416 0.863013 12.2009 0.941495L6.61603 2.24367C6.2785 2.32216 6.06285 2.6656 6.14411 3.00778C6.20974 3.29974 6.46917 3.49939 6.75982 3.49939C6.8067 3.49939 6.85357 3.49468 6.90357 3.4837Z" fill="#BC845E"/>
<path fill-rule="evenodd" clip-rule="evenodd" d="M21.4914 13.3713C21.4383 13.3713 21.3852 13.3591 21.3321 13.3355C21.1414 13.2486 21.057 13.0216 21.1445 12.8304L23.8667 6.85103H5.40562L7.86208 12.2528C7.95272 12.4443 7.86522 12.6722 7.6777 12.7582C7.48394 12.8452 7.25892 12.7617 7.17141 12.5693L4.46804 6.62658C4.41178 6.50886 4.42431 6.37041 4.49306 6.2599C4.56494 6.15223 4.68367 6.086 4.81494 6.086H24.4573C24.5886 6.086 24.7105 6.15223 24.7792 6.2599C24.848 6.37041 24.8605 6.50886 24.8042 6.62658L21.8384 13.1481C21.7759 13.2891 21.6352 13.3713 21.4914 13.3713Z" fill="black"/>
<path fill-rule="evenodd" clip-rule="evenodd" d="M23.4579 9.0553H5.81568C5.60942 9.0553 5.4375 8.88358 5.4375 8.67262C5.4375 8.4604 5.60942 8.28994 5.81568 8.28994H23.4579C23.6673 8.28994 23.8391 8.4604 23.8391 8.67262C23.8391 8.88358 23.6673 9.0553 23.4579 9.0553Z" fill="black"/>
<path fill-rule="evenodd" clip-rule="evenodd" d="M6.75973 6.85156C6.55034 6.85156 6.37842 6.67985 6.37842 6.46889V3.49881C6.37842 3.2869 6.55034 3.1177 6.75973 3.1177C6.96912 3.1177 7.14101 3.2869 7.14101 3.49881V6.46889C7.14101 6.67985 6.96912 6.85156 6.75973 6.85156ZM12.3415 6.85156C12.1352 6.85156 11.9633 6.67985 11.9633 6.46889V2.21391C11.9633 2.00295 12.1352 1.83123 12.3415 1.83123C12.5509 1.83123 12.7227 2.00295 12.7227 2.21391V6.46889C12.7227 6.67985 12.5509 6.85156 12.3415 6.85156Z" fill="black"/>
<path fill-rule="evenodd" clip-rule="evenodd" d="M12.341 1.3057C12.3222 1.3057 12.3035 1.30822 12.2847 1.31199L6.69984 2.61417C6.63733 2.62892 6.57796 2.67068 6.5467 2.72687C6.5092 2.78589 6.4967 2.85338 6.51233 2.91836C6.52796 2.9846 6.56546 3.0408 6.62484 3.07659C6.68109 3.11206 6.74984 3.12555 6.81234 3.11079L12.4003 1.80737C12.5379 1.7766 12.6222 1.63941 12.5879 1.50191C12.5597 1.38544 12.4566 1.3057 12.341 1.3057ZM6.75611 3.88086C6.56859 3.88086 6.3873 3.82937 6.22166 3.72641C5.99352 3.58294 5.83102 3.35723 5.76851 3.09353C5.6435 2.54666 5.98414 1.9973 6.53106 1.87236L12.1159 0.568608C12.6597 0.441153 13.2035 0.783324 13.3285 1.33019C13.4536 1.87831 13.116 2.42518 12.5723 2.55295L6.98738 3.85513C6.91237 3.87239 6.83424 3.88086 6.75611 3.88086Z" fill="black"/>
<path fill-rule="evenodd" clip-rule="evenodd" d="M22.5137 6.85156C22.3043 6.85156 22.1356 6.67985 22.1356 6.46889V4.26543C22.1356 3.97849 21.9043 3.74556 21.6168 3.74556H18.6259C18.3415 3.74556 18.1071 3.97849 18.1071 4.26543V6.46889C18.1071 6.67985 17.9352 6.85156 17.7289 6.85156C17.5164 6.85156 17.3477 6.67985 17.3477 6.46889V4.26543C17.3477 3.55909 17.9196 2.98271 18.6259 2.98271H21.6168C22.3199 2.98271 22.895 3.55657 22.895 4.26543V6.46889C22.895 6.67985 22.7231 6.85156 22.5137 6.85156Z" fill="black"/>
<path fill-rule="evenodd" clip-rule="evenodd" d="M20.12 0.764998C19.5137 0.764998 19.0199 1.26163 19.0199 1.87379C19.0199 2.48564 19.5137 2.98227 20.12 2.98227C20.7326 2.98227 21.2263 2.48564 21.2263 1.87379C21.2263 1.26163 20.7326 0.764998 20.12 0.764998ZM20.12 3.74512C19.0918 3.74512 18.2573 2.90504 18.2573 1.87379C18.2573 0.840021 19.0918 -5.00679e-05 20.12 -5.00679e-05C21.1482 -5.00679e-05 21.9858 0.840021 21.9858 1.87379C21.9858 2.90504 21.1482 3.74512 20.12 3.74512Z" fill="black"/>
<path fill-rule="evenodd" clip-rule="evenodd" d="M27.3521 20.2793C26.3927 20.2793 25.6114 19.4967 25.6114 18.5329V16.8923C25.6114 16.7438 25.6957 16.6088 25.8301 16.5464C25.9614 16.4852 26.1208 16.5033 26.2333 16.5978L27.5928 17.7249C27.7553 17.8586 27.7772 18.1 27.6459 18.2632C27.5115 18.4249 27.2678 18.4485 27.1084 18.3135L26.3708 17.7038V18.5329C26.3708 19.0738 26.8115 19.5152 27.3521 19.5152C27.8897 19.5152 28.3272 19.0738 28.3272 18.5329V1.68371L22.7455 5.98423C22.5767 6.11326 22.3392 6.0825 22.2111 5.91455C22.0829 5.74785 22.1142 5.50613 22.2829 5.37741L28.4773 0.606001C28.5929 0.517473 28.746 0.501776 28.8773 0.566759C29.0054 0.630487 29.0867 0.764219 29.0867 0.907686V18.5304C29.0898 19.4967 28.3116 20.2793 27.3521 20.2793Z" fill="black"/>
<path fill-rule="evenodd" clip-rule="evenodd" d="M34.6218 13.4761C34.028 13.4761 33.4655 13.2431 32.9186 13.0174C32.4216 12.8124 31.9497 12.6162 31.509 12.6162C31.0621 12.6162 30.5933 12.8124 30.0964 13.0174C29.5526 13.2431 28.9901 13.4761 28.3963 13.4761C27.7994 13.4761 27.2399 13.2431 26.693 13.0174C26.1961 12.8124 25.7241 12.6162 25.2835 12.6162C24.8397 12.6162 24.3709 12.8124 23.8709 13.0174C23.3271 13.2431 22.7645 13.4761 22.1707 13.4761C21.5738 13.4761 21.0112 13.2431 20.4675 13.0174C19.9674 12.8124 19.4986 12.6162 19.0548 12.6162C18.6142 12.6162 18.1422 12.8124 17.6422 13.0174C17.0984 13.2431 16.539 13.4761 15.9421 13.4761C15.3482 13.4761 14.7857 13.2431 14.2388 13.0174C13.7418 12.8124 13.2762 12.6162 12.8292 12.6162C12.3886 12.6162 11.9135 12.8124 11.4166 13.0174C10.8728 13.2431 10.3134 13.4761 9.71648 13.4761C9.12268 13.4761 8.56011 13.2431 8.01318 13.0174C7.51626 12.8124 7.05063 12.6162 6.60372 12.6162C6.15993 12.6162 5.69113 12.8124 5.19421 13.0174C4.64729 13.2431 4.08472 13.4761 3.49091 13.4761C2.89711 13.4761 2.33458 13.2431 1.79078 13.0174C1.29386 12.8124 0.821936 12.6162 0.378147 12.6162C0.168753 12.6162 0 12.4448 0 12.2351C0 12.0229 0.168753 11.8524 0.378147 11.8524C0.97195 11.8524 1.53448 12.0854 2.08141 12.3111C2.57833 12.5183 3.04712 12.7132 3.49091 12.7132C3.93783 12.7132 4.40662 12.5183 4.90042 12.3111C5.44734 12.0854 6.00991 11.8524 6.60372 11.8524C7.20064 11.8524 7.76005 12.0854 8.30698 12.3111C8.80077 12.5183 9.27582 12.7132 9.71648 12.7132C10.1634 12.7132 10.6291 12.5183 11.126 12.3111C11.6729 12.0854 12.2354 11.8524 12.8292 11.8524C13.4262 11.8524 13.9856 12.0854 14.5294 12.3111C15.0295 12.5183 15.5014 12.7132 15.9421 12.7132C16.3858 12.7132 16.8546 12.5183 17.3546 12.3111C17.8984 12.0854 18.461 11.8524 19.0548 11.8524C19.6517 11.8524 20.2143 12.0854 20.755 12.3111C21.2581 12.5183 21.7238 12.7132 22.1707 12.7132C22.6114 12.7132 23.0833 12.5183 23.5802 12.3111C24.1271 12.0854 24.6866 11.8524 25.2835 11.8524C25.8773 11.8524 26.4399 12.0854 26.9837 12.3111C27.4806 12.5183 27.9494 12.7132 28.3963 12.7132C28.8369 12.7132 29.3089 12.5183 29.8058 12.3111C30.3527 12.0854 30.9121 11.8524 31.509 11.8524C32.1029 11.8524 32.6654 12.0854 33.2092 12.3111C33.7061 12.5183 34.1749 12.7132 34.6218 12.7132C34.8312 12.7132 35 12.8824 35 13.0946C35 13.3056 34.8312 13.4761 34.6218 13.4761Z" fill="black"/>
<path fill-rule="evenodd" clip-rule="evenodd" d="M8.63118 25.5423C8.74057 25.5423 8.8468 25.5913 8.91868 25.6811C10.747 27.9018 13.441 29.1758 16.3037 29.1758C20.0541 29.1758 23.4512 26.9773 25.0107 23.5596C23.4512 20.1418 20.0541 17.9418 16.3037 17.9418C13.441 17.9418 10.747 19.216 8.91868 21.4368C8.81867 21.562 8.64992 21.6098 8.49991 21.5532C8.45928 21.5397 8.42491 21.5203 8.39366 21.4958L4.39641 18.6679L5.32148 23.487C5.32773 23.5351 5.32773 23.5841 5.32148 23.6305L4.39641 28.4487L8.39679 25.6196C8.42804 25.5963 8.4624 25.5778 8.49991 25.5646C8.54054 25.5486 8.5843 25.5423 8.63118 25.5423ZM16.3037 29.9386C13.3253 29.9386 10.5282 28.6681 8.5624 26.4364L4.06515 29.6196C3.94014 29.7107 3.77134 29.7129 3.64008 29.6297C3.50882 29.5449 3.44009 29.388 3.47134 29.2373L4.55893 23.5596L3.47134 17.8844C3.44009 17.7308 3.50882 17.5751 3.64008 17.4907C3.77134 17.4059 3.94014 17.4097 4.06515 17.4992L8.5624 20.684C10.5282 18.4532 13.3253 17.1793 16.3037 17.1793C20.4103 17.1793 24.1294 19.6257 25.7733 23.4086C25.8202 23.5068 25.8202 23.6158 25.7733 23.714C24.1294 27.4959 20.4103 29.9386 16.3037 29.9386Z" fill="black"/>
<path fill-rule="evenodd" clip-rule="evenodd" d="M21.636 28.3855C21.5673 28.3855 21.5017 28.3682 21.4392 28.3315C19.5202 27.1715 18.417 25.4314 18.417 23.5601C18.417 21.6875 19.5202 19.9499 21.4392 18.7874C21.6204 18.6807 21.8517 18.7381 21.961 18.9199C22.0704 19.1001 22.0111 19.3356 21.8298 19.4435C20.1453 20.4638 19.1796 21.9622 19.1796 23.5601C19.1796 25.1567 20.1453 26.6576 21.8298 27.6754C22.0111 27.7846 22.0673 28.0188 21.961 28.199C21.8923 28.3192 21.7642 28.3855 21.636 28.3855Z" fill="black"/>
<path fill-rule="evenodd" clip-rule="evenodd" d="M6.47521 22.0291H4.58127C4.37188 22.0291 4.20312 21.8573 4.20312 21.6476C4.20312 21.4354 4.37188 21.2637 4.58127 21.2637H6.47521C6.6846 21.2637 6.85648 21.4354 6.85648 21.6476C6.85648 21.8573 6.6846 22.0291 6.47521 22.0291Z" fill="black"/>
<path fill-rule="evenodd" clip-rule="evenodd" d="M7.45347 23.9421H4.94699C4.73448 23.9421 4.56885 23.7704 4.56885 23.5595C4.56885 23.3485 4.73448 23.1768 4.94699 23.1768H7.45347C7.66287 23.1768 7.83475 23.3485 7.83475 23.5595C7.83475 23.7704 7.66287 23.9421 7.45347 23.9421Z" fill="black"/>
<path fill-rule="evenodd" clip-rule="evenodd" d="M6.47521 25.8539H4.58127C4.37188 25.8539 4.20312 25.6834 4.20312 25.4728C4.20312 25.2618 4.37188 25.0901 4.58127 25.0901H6.47521C6.6846 25.0901 6.85648 25.2618 6.85648 25.4728C6.85648 25.6834 6.6846 25.8539 6.47521 25.8539Z" fill="black"/>
<path fill-rule="evenodd" clip-rule="evenodd" d="M8.63151 24.8572C8.41899 24.8572 8.24707 24.6855 8.24707 24.4758V21.1955C8.24707 20.9846 8.41899 20.8128 8.63151 20.8128C8.83778 20.8128 9.00966 20.9846 9.00966 21.1955V24.4758C9.00966 24.6855 8.83778 24.8572 8.63151 24.8572Z" fill="black"/>
<path fill-rule="evenodd" clip-rule="evenodd" d="M19.6232 18.5146C19.6075 18.5146 19.5888 18.5147 19.5732 18.5112C19.3669 18.4842 19.22 18.2905 19.2482 18.0821C19.2669 17.942 19.2763 17.8023 19.2763 17.6614C19.2763 16.4791 18.6106 15.4808 17.823 15.4808C17.1417 15.4808 16.551 16.2217 16.4073 17.1952C16.5667 17.2395 16.6854 17.3867 16.6854 17.5619C16.6854 17.7728 16.5135 17.9445 16.3041 17.9445C16.2041 17.9445 16.1041 17.9458 16.0041 17.9496C15.901 17.9508 15.7978 17.9128 15.726 17.8366C15.6509 17.7631 15.6103 17.6626 15.6134 17.5572C15.6572 15.964 16.626 14.7145 17.8261 14.7145C19.045 14.7145 20.0389 16.0377 20.0389 17.6589C20.0389 17.8353 20.0264 18.0095 20.0014 18.1838C19.9764 18.3749 19.8138 18.5146 19.6232 18.5146Z" fill="black"/>
<path fill-rule="evenodd" clip-rule="evenodd" d="M10.6441 19.7159C10.5097 19.7159 10.3784 19.6434 10.3128 19.5147C9.65962 18.2995 9.72209 17.024 10.4753 16.2649C10.9816 15.7573 11.7223 15.5526 12.5505 15.6886C13.3349 15.8176 14.1194 16.2417 14.7538 16.8831C14.9257 17.0523 15.0851 17.2387 15.2257 17.4312C15.3476 17.6016 15.3101 17.8409 15.1445 17.9671C14.9726 18.0911 14.7351 18.0543 14.6101 17.8826C14.4944 17.7206 14.3632 17.5662 14.2194 17.424C13.6944 16.8953 13.0568 16.5472 12.4255 16.4429C11.8473 16.3472 11.3441 16.4759 11.016 16.8058C10.5034 17.321 10.4878 18.2417 10.9785 19.1531C11.0785 19.338 11.0097 19.57 10.8253 19.6692C10.7691 19.7024 10.7066 19.7159 10.6441 19.7159Z" fill="black"/>
<path fill-rule="evenodd" clip-rule="evenodd" d="M11.1228 30.3628C10.5883 30.3628 10.1133 30.1813 9.7664 29.8291C9.12259 29.183 9.06009 28.099 9.61014 27.07C9.71014 26.8838 9.93826 26.8126 10.1258 26.9143C10.3133 27.0138 10.382 27.2455 10.282 27.432C9.89451 28.1565 9.90391 28.8886 10.3071 29.2898C10.5633 29.5472 10.9571 29.6489 11.4196 29.573C11.9259 29.4894 12.4385 29.2075 12.8667 28.7797L12.8729 28.7746C13.0198 28.6252 13.2604 28.6214 13.4104 28.7687C13.5605 28.9168 13.5636 29.1598 13.4167 29.3092L13.4073 29.318C12.8698 29.8599 12.2072 30.2193 11.5415 30.3258C11.3978 30.3493 11.2571 30.3628 11.1228 30.3628Z" fill="black"/>
<path fill-rule="evenodd" clip-rule="evenodd" d="M17.8225 32C16.7567 32 15.8442 30.9942 15.6504 29.6072C15.6348 29.4958 15.666 29.3818 15.741 29.2971C15.8161 29.2148 15.9254 29.1658 16.0379 29.1709C16.1254 29.1734 16.2129 29.1756 16.3036 29.1756C16.513 29.1756 16.6849 29.3473 16.6849 29.557C16.6849 29.7017 16.6005 29.8282 16.4817 29.8942C16.7068 30.6915 17.2318 31.2372 17.8225 31.2372C18.61 31.2372 19.2757 30.2389 19.2757 29.0557C19.2757 29.0321 19.2757 29.0089 19.2757 28.9844C19.2695 28.7734 19.4383 28.5992 19.6476 28.5945C19.8539 28.5882 20.0321 28.7562 20.0352 28.9671C20.0352 28.9966 20.0352 29.0261 20.0352 29.0557C20.0352 30.6802 19.0444 32 17.8225 32Z" fill="black"/>
<path fill-rule="evenodd" clip-rule="evenodd" d="M22.1142 23.0105C21.811 23.0105 21.5641 23.2569 21.5641 23.5599C21.5641 23.8628 21.811 24.1093 22.1142 24.1093C22.4174 24.1093 22.6611 23.8628 22.6611 23.5599C22.6611 23.2569 22.4142 23.0105 22.1142 23.0105ZM22.1142 24.873C21.3923 24.873 20.8047 24.2844 20.8047 23.5599C20.8047 22.835 21.3923 22.2464 22.1142 22.2464C22.833 22.2464 23.4205 22.835 23.4205 23.5599C23.4205 24.2844 22.833 24.873 22.1142 24.873Z" fill="black"/>
<path fill-rule="evenodd" clip-rule="evenodd" d="M14.0195 21.8979C12.3131 21.8979 10.8161 22.6739 10.8161 23.5595C10.8161 24.4461 12.3131 25.2224 14.0195 25.2224C15.729 25.2224 17.2292 24.4461 17.2292 23.5595C17.2292 22.6739 15.729 21.8979 14.0195 21.8979ZM14.0195 25.9862C11.7974 25.9862 10.0566 24.9207 10.0566 23.5595C10.0566 22.1983 11.7974 21.1326 14.0195 21.1326C16.2447 21.1326 17.9886 22.1983 17.9886 23.5595C17.9886 24.9207 16.2447 25.9862 14.0195 25.9862Z" fill="black"/>
</svg>
