<svg width="26" height="32" viewBox="0 0 26 32" fill="none" xmlns="http://www.w3.org/2000/svg">
<path fill-rule="evenodd" clip-rule="evenodd" d="M15.1303 22.9286C15.1303 26.3917 12.3363 29.2308 8.92824 29.2308C5.51793 29.2308 2.72479 26.3917 2.72479 22.9286V22.644L4.28444 23.6652C4.83694 24.0279 5.57614 23.866 5.93182 23.3058C6.28778 22.7445 6.12751 21.9911 5.57613 21.6318L2.17904 19.4053C1.80227 19.1586 1.35633 19.143 0.962976 19.3606C0.5699 19.5771 0.341309 19.9689 0.341309 20.4231V22.9264C0.341309 27.7275 4.20318 31.6504 8.92824 31.6504C13.6519 31.6504 17.5127 27.7275 17.5127 22.9264V13.6076H15.1303V22.9286Z" fill="#D8D1D7"/>
<path fill-rule="evenodd" clip-rule="evenodd" d="M17.5131 13.6074H18.6631C19.2384 13.6074 19.7118 13.1274 19.7118 12.5403C19.7118 11.9555 19.2384 11.4758 18.6631 11.4758H13.9819C13.4052 11.4758 12.9331 11.9555 12.9331 12.5403C12.9331 13.1274 13.4052 13.6074 13.9819 13.6074H15.1307H17.5131Z" fill="#AD5E2E"/>
<path fill-rule="evenodd" clip-rule="evenodd" d="M13.9819 11.4763H18.6631C19.2384 11.4763 19.7118 10.9952 19.7118 10.4092C19.7118 9.82437 19.2384 9.34468 18.6631 9.34468H17.5131H15.1307H13.9819C13.4052 9.34468 12.9331 9.82437 12.9331 10.4092C12.9331 10.9952 13.4052 11.4763 13.9819 11.4763Z" fill="#CA6D36"/>
<path fill-rule="evenodd" clip-rule="evenodd" d="M18.7786 4.92659C18.7786 6.30826 17.6792 7.42308 16.3214 7.42308C14.9651 7.42308 13.8646 6.30826 13.8646 4.92659C13.8646 3.54835 14.9651 2.4301 16.3214 2.4301C17.6792 2.4301 18.7786 3.54835 18.7786 4.92659ZM15.131 9.34387H17.5133C19.4244 8.8136 20.8269 7.03595 20.8269 4.92659C20.8269 2.39867 18.8104 0.348454 16.3214 0.348454C13.8351 0.348454 11.8174 2.39867 11.8174 4.92659C11.8174 7.03595 13.2199 8.8136 15.131 9.34387Z" fill="#D8D1D7"/>
<path fill-rule="evenodd" clip-rule="evenodd" d="M17.5127 9.69283C17.3634 9.69283 17.2259 9.58883 17.1832 9.43598C17.1337 9.2497 17.2402 9.05999 17.4235 9.0097C19.225 8.50629 20.4847 6.82663 20.4847 4.92727C20.4847 2.59477 18.6166 0.697409 16.3208 0.697409C14.0253 0.697409 12.1584 2.59477 12.1584 4.92727C12.1584 6.82663 13.418 8.50629 15.2214 9.0097C15.4039 9.05999 15.5105 9.2497 15.4599 9.43598C15.4104 9.62026 15.2226 9.73168 15.0381 9.6794C12.9392 9.0957 11.4729 7.14262 11.4729 4.92727C11.4729 2.20964 13.6477 0 16.3208 0C18.9942 0 21.169 2.20964 21.169 4.92727C21.169 7.14262 19.7027 9.0957 17.6027 9.6794C17.5731 9.68711 17.5433 9.69283 17.5127 9.69283ZM8.92827 32C4.00442 32 0 27.9321 0 22.9289V20.4234C0 19.843 0.2986 19.333 0.798239 19.0562C1.30041 18.7772 1.88469 18.7996 2.36352 19.1143L5.76174 21.3385C6.10533 21.5639 6.34264 21.9099 6.42952 22.3206C6.515 22.728 6.44161 23.1443 6.22089 23.4925C5.99792 23.8418 5.65517 24.084 5.2531 24.171C4.8544 24.2603 4.44249 24.1844 4.10115 23.9578L3.07966 23.2893C3.26298 26.4053 5.81656 28.8829 8.92827 28.8829C12.1595 28.8829 14.7887 26.21 14.7887 22.9289V13.6078C14.7887 13.4147 14.9425 13.2584 15.1303 13.2584C15.3204 13.2584 15.4742 13.4147 15.4742 13.6078V22.9289C15.4742 26.595 12.5371 29.5771 8.92827 29.5771C5.32001 29.5771 2.38319 26.595 2.38319 22.9289V22.6443C2.38319 22.5159 2.45125 22.3987 2.56118 22.3396C2.67112 22.2782 2.80607 22.2849 2.91038 22.3507L4.47116 23.3753C4.66123 23.4981 4.88841 23.5405 5.11138 23.4925C5.33323 23.4423 5.52219 23.3083 5.64534 23.1164C5.76821 22.9233 5.80897 22.6945 5.76061 22.4691C5.71337 22.2425 5.5815 22.0506 5.39255 21.9244L1.99433 19.698C1.72525 19.5227 1.41007 19.5082 1.12777 19.6678C0.8466 19.8207 0.686331 20.0975 0.686331 20.4234V22.9289C0.686331 27.547 4.38315 31.3047 8.92911 31.3047C13.4751 31.3047 17.1733 27.547 17.1733 22.9289V13.6078C17.1733 13.4147 17.326 13.2584 17.5149 13.2584C17.7036 13.2584 17.8574 13.4147 17.8574 13.6078V22.9289C17.8554 27.9321 13.8507 32 8.92827 32Z" fill="black"/>
<path fill-rule="evenodd" clip-rule="evenodd" d="M16.3209 2.77781C15.1558 2.77781 14.2068 3.74321 14.2068 4.92631C14.2068 6.11141 15.1558 7.07681 16.3209 7.07681C17.4875 7.07681 18.4376 6.11141 18.4376 4.92631C18.4365 3.74321 17.4875 2.77781 16.3209 2.77781ZM16.3209 7.77222C14.7779 7.77222 13.5225 6.49426 13.5225 4.92631C13.5225 3.35836 14.7779 2.08384 16.3209 2.08384C17.8654 2.08384 19.1217 3.35836 19.1217 4.92631C19.1217 6.49426 17.8654 7.77222 16.3209 7.77222Z" fill="black"/>
<path fill-rule="evenodd" clip-rule="evenodd" d="M18.6622 11.8236C18.4733 11.8236 18.3195 11.6676 18.3195 11.4756C18.3195 11.2825 18.4733 11.1262 18.6622 11.1262C19.0508 11.1262 19.3682 10.8059 19.3682 10.4085C19.3682 10.0137 19.0508 9.69225 18.6622 9.69225H13.981C13.591 9.69225 13.2739 10.0137 13.2739 10.4085C13.2739 10.8059 13.591 11.1262 13.981 11.1262C14.17 11.1262 14.3226 11.2825 14.3226 11.4756C14.3226 11.6676 14.17 11.8236 13.981 11.8236C13.2134 11.8236 12.5884 11.1911 12.5884 10.4085C12.5884 9.63083 13.2134 8.99456 13.981 8.99456H18.6622C19.4287 8.99456 20.0537 9.63083 20.0537 10.4085C20.0537 11.1876 19.4287 11.8236 18.6622 11.8236Z" fill="black"/>
<path fill-rule="evenodd" clip-rule="evenodd" d="M13.981 11.8243C13.591 11.8243 13.2739 12.1457 13.2739 12.5408C13.2739 12.9383 13.591 13.2585 13.981 13.2585H18.6622C19.0508 13.2585 19.3682 12.9383 19.3682 12.5408C19.3682 12.1457 19.0508 11.8243 18.6622 11.8243H13.981ZM18.6622 13.9559H13.981C13.2134 13.9559 12.5884 13.32 12.5884 12.5408C12.5884 11.7609 13.2134 11.1269 13.981 11.1269H18.6622C19.4287 11.1269 20.0537 11.7609 20.0537 12.5408C20.0537 13.32 19.4287 13.9559 18.6622 13.9559Z" fill="black"/>
<path fill-rule="evenodd" clip-rule="evenodd" d="M23.2378 20.4323C23.1281 20.4323 23.0215 20.3787 22.9555 20.2805C22.9392 20.2559 21.2971 17.8375 19.5705 17.6332C17.4057 17.3766 17.1805 13.7795 17.1741 13.6266C17.162 13.4335 17.3056 13.2729 17.4957 13.2618C17.6858 13.2507 17.8449 13.3955 17.8562 13.5875C17.9054 14.4692 18.326 16.7851 19.6506 16.9413C21.688 17.1812 23.4475 19.7782 23.5223 19.891C23.6278 20.0495 23.5881 20.2649 23.4323 20.3731C23.3719 20.4122 23.3058 20.4323 23.2378 20.4323Z" fill="black"/>
<path fill-rule="evenodd" clip-rule="evenodd" d="M25.6579 16.6564C25.6073 16.6564 25.5578 16.6452 25.5095 16.6207C25.483 16.6095 22.8693 15.3451 21.2756 16.0481C19.2742 16.9276 17.3094 13.9254 17.227 13.7972C17.1239 13.6352 17.1666 13.4197 17.3249 13.316C17.484 13.2112 17.6949 13.2546 17.7992 13.4143C18.2761 14.1509 19.7795 15.9443 21.0043 15.4085C22.8856 14.5806 25.6886 15.9365 25.8061 15.9923C25.9774 16.076 26.0476 16.2858 25.9664 16.4577C25.907 16.5838 25.7853 16.6564 25.6579 16.6564Z" fill="black"/>
</svg>
