<svg width="32" height="32" viewBox="0 0 32 32" fill="none" xmlns="http://www.w3.org/2000/svg">
<path d="M16.0002 8.26408V14.8281H15.9414C14.1243 14.8281 12.6594 13.3627 12.6594 11.5461C12.6594 9.72896 14.1243 8.26408 15.9414 8.26408H16.0002Z" fill="#2293A7"/>
<path d="M16.0002 8.26408C17.7581 8.32279 19.2235 9.78767 19.2235 11.5461C19.2235 13.3627 17.7581 14.8281 16.0002 14.8281V8.26408Z" fill="#2293A7"/>
<path d="M16.0163 15.3281L16.0079 15.3284H15.9996H15.9409C13.8475 15.3284 12.1588 13.639 12.1588 11.5464C12.1588 9.45307 13.8476 7.76433 15.9409 7.76433H15.9996C18.0394 7.76433 19.7229 9.4589 19.7229 11.5464C19.7229 13.5841 18.0338 15.2607 16.0163 15.3281ZM30.9139 16.0003C30.9139 7.7809 24.224 1.14524 15.9996 1.14524C7.77769 1.14524 1.14453 7.77839 1.14453 16.0003C1.14453 24.2252 7.78016 30.9141 15.9996 30.9141C24.2215 30.9141 30.9139 24.2227 30.9139 16.0003Z" stroke="#001518"/>
<path d="M20.337 26.1396C19.0476 26.1396 17.8164 25.6124 16.8794 24.6742C15.9412 23.7366 15.4133 22.5059 15.4133 21.2166C15.4133 20.8649 15.6482 20.6301 15.9999 20.6301C16.351 20.6301 16.5858 20.8649 16.5858 21.2166C16.5858 22.2124 16.9962 23.1506 17.6996 23.854C18.403 24.5573 19.3406 24.9672 20.337 24.9672C22.3878 24.9672 24.0875 23.2674 24.0875 21.2166V20.5719L22.3878 21.6851C22.0948 21.8613 21.7437 21.8026 21.5676 21.5096C21.3914 21.2166 21.4502 20.8649 21.7437 20.6888L24.3218 18.9304C24.4979 18.8135 24.7322 18.8135 24.9083 18.9304C25.0839 19.0478 25.2013 19.2239 25.2013 19.4582V21.2166C25.26 23.9121 23.033 26.1396 20.337 26.1396Z" fill="#001518"/>
<path d="M11.6623 26.1396C8.96625 26.1396 6.73926 23.9127 6.73926 21.2166V19.4582C6.73926 19.2239 6.8561 19.0478 7.03224 18.9304C7.20837 18.8135 7.44264 18.8135 7.61819 18.9304L10.1974 20.6888C10.4898 20.8649 10.5491 21.2166 10.373 21.5096C10.1974 21.8026 9.84574 21.8613 9.55218 21.6851L7.85247 20.5719V21.2166C7.85247 23.2674 9.55218 24.9672 11.6036 24.9672C12.5999 24.9672 13.5382 24.5573 14.2415 23.854C14.9449 23.1506 15.3547 22.2124 15.3547 21.2166V6.50562C15.3547 6.15394 15.589 5.91967 15.9407 5.91967C16.2924 5.91967 16.5266 6.15394 16.5266 6.50562V21.2166C16.5266 22.5059 15.9994 23.7366 15.0618 24.6742C14.2415 25.6124 13.0104 26.1396 11.6623 26.1396Z" fill="#001518"/>
<path d="M15.9415 8.85002C14.4173 8.85002 13.246 10.0806 13.246 11.5461C13.246 13.0115 14.4766 14.2422 15.9415 14.2422H16.0002C17.4651 14.1835 18.6376 13.0115 18.6376 11.5461C18.6376 10.0806 17.4651 8.85002 15.9415 8.85002ZM15.9415 15.4141C13.7732 15.4141 12.0735 13.6562 12.0735 11.5461C12.0735 9.43596 13.8313 7.67811 15.9415 7.67811C16.0002 7.67811 16.0002 7.67811 16.0589 7.67811C17.0547 7.67811 18.051 8.08852 18.7544 8.85002C19.4578 9.55339 19.8682 10.5497 19.8682 11.5461C19.8682 12.5424 19.4578 13.5388 18.7544 14.2422C18.051 14.9456 17.1134 15.3554 16.0589 15.4141C16.0002 15.4141 15.9415 15.4141 15.9415 15.4141Z" fill="white"/>
</svg>
