<svg width="40" height="40" viewBox="0 0 40 40" fill="none" xmlns="http://www.w3.org/2000/svg">
<g clip-path="url(#clip0_237_10599)">
<path fill-rule="evenodd" clip-rule="evenodd" d="M18.1998 24.6405L14.5264 20.9671C13.5119 19.9526 13.2604 18.4027 13.902 17.1194L14.1101 16.7031C14.7518 15.4198 14.5003 13.8699 13.4857 12.8554L8.93106 8.30072C8.60563 7.97528 8.07799 7.97528 7.75255 8.30072C7.68922 8.36405 7.63651 8.43718 7.59645 8.5173L5.75649 12.1972C4.3489 15.0124 4.90065 18.4124 7.12625 20.638L17.1243 30.6361C19.5469 33.0586 23.1302 33.9046 26.3804 32.8212L30.4046 31.4798C30.8412 31.3342 31.0772 30.8623 30.9316 30.4257C30.8907 30.303 30.8218 30.1914 30.7303 30.1L26.3115 25.6812C25.297 24.6666 23.7471 24.4151 22.4638 25.0568L22.0475 25.2649C20.7642 25.9066 19.2143 25.655 18.1998 24.6405Z" fill="#001518"/>
<path opacity="0.3" d="M16.4193 10.0119L16.7382 13.3299C19.2025 13.093 21.6499 13.9482 23.4338 15.7322C25.212 17.5103 26.0675 19.9475 25.8383 22.4043L29.1573 22.714C29.4777 19.2797 28.278 15.8623 25.7909 13.3752C23.2955 10.8798 19.864 9.68073 16.4193 10.0119ZM15.8359 3.37045L16.1443 6.68949C20.563 6.2789 24.9494 7.81964 28.1479 11.0181C31.342 14.2122 32.883 18.5909 32.4782 23.004L35.7976 23.3084C36.2919 17.9196 34.4067 12.5629 30.5049 8.66111C26.5977 4.75392 21.2317 2.86907 15.8359 3.37045Z" fill="#001518"/>
</g>
<defs>
<clipPath id="clip0_237_10599">
<rect width="40" height="40" fill="white" transform="matrix(-1 0 0 1 40 0)"/>
</clipPath>
</defs>
</svg>
