<svg width="24" height="32" viewBox="0 0 24 32" fill="none" xmlns="http://www.w3.org/2000/svg">
<path fill-rule="evenodd" clip-rule="evenodd" d="M6.64941 16.1792H17.3506V13.448H6.64941V16.1792Z" fill="#F9EAB0"/>
<path fill-rule="evenodd" clip-rule="evenodd" d="M6.64941 13.4482H17.3506V12.5242C17.3506 9.55868 14.9435 7.13318 12.0023 7.13318C9.05884 7.13318 6.65168 9.55983 6.65168 12.5242V13.4482H6.64941Z" fill="#5C9CEE"/>
<path fill-rule="evenodd" clip-rule="evenodd" d="M17.3506 16.1792H6.64941V17.1032C6.64941 20.0676 9.05884 22.4928 12 22.4928C14.9435 22.4928 17.3506 20.0676 17.3506 17.1032V16.1792Z" fill="#5C9CEE"/>
<path fill-rule="evenodd" clip-rule="evenodd" d="M13.7965 2.15694C13.7965 1.15805 12.9934 0.347748 11.9997 0.347748C11.0082 0.347748 10.2051 1.15805 10.2051 2.15694C10.2051 3.15812 11.0082 3.96729 11.9997 3.96729C12.9934 3.96729 13.7965 3.15812 13.7965 2.15694Z" fill="#F9EAB0"/>
<path fill-rule="evenodd" clip-rule="evenodd" d="M16.7023 32C13.9185 32 11.6562 29.7196 11.6562 26.9161C11.6562 26.7241 11.8114 26.569 11.9997 26.569C12.1903 26.569 12.3454 26.7241 12.3454 26.9161C12.3454 29.3356 14.3005 31.3045 16.7023 31.3045C19.1029 31.3045 21.058 29.3356 21.058 26.9161C21.058 26.771 21.1468 26.6404 21.2829 26.589C21.4182 26.5398 21.571 26.5801 21.6652 26.6907L23.9164 29.3548C24.0414 29.5011 24.0247 29.7196 23.8775 29.8459C23.7335 29.9696 23.5151 29.9519 23.39 29.8056L21.6729 27.7756C21.2687 30.1705 19.1914 32 16.7023 32Z" fill="black"/>
<path fill-rule="evenodd" clip-rule="evenodd" d="M12 7.48006C11.8117 7.48006 11.6566 7.32606 11.6566 7.13291V3.96651C11.6566 3.77365 11.8117 3.61852 12 3.61852C12.1906 3.61852 12.3457 3.77365 12.3457 3.96651V7.13291C12.3457 7.32606 12.1906 7.48006 12 7.48006ZM7.29969 32C4.80716 32 2.73323 30.1705 2.3257 27.7756L0.608531 29.8056C0.4846 29.9519 0.268502 29.9696 0.121032 29.8459C-0.0230347 29.7196 -0.0417481 29.5011 0.0824668 29.3548L2.33449 26.6907C2.42865 26.5801 2.58038 26.5398 2.71679 26.589C2.85178 26.6404 2.94366 26.771 2.94366 26.9161C2.94366 29.3356 4.89905 31.3045 7.29969 31.3045C9.70146 31.3045 11.6532 29.3356 11.6532 26.9161V22.4928C11.6532 22.302 11.8083 22.1457 12 22.1457C12.1906 22.1457 12.3457 22.302 12.3457 22.4928V26.9161C12.3457 29.7196 10.0835 32 7.29969 32Z" fill="black"/>
<path fill-rule="evenodd" clip-rule="evenodd" d="M11.9997 7.48023C9.24116 7.48023 6.9948 9.74374 6.9948 12.5241V17.1011C6.9948 19.8826 9.24116 22.1447 11.9997 22.1447C14.7602 22.1447 17.0069 19.8826 17.0069 17.1011V12.5241C17.0069 9.74374 14.7602 7.48023 11.9997 7.48023ZM11.9997 22.8413C8.85916 22.8413 6.30566 20.2664 6.30566 17.1034V12.5241C6.30566 9.35972 8.85916 6.78622 11.9997 6.78622C15.1402 6.78622 17.696 9.36087 17.696 12.5241V17.1034C17.696 20.2664 15.1402 22.8413 11.9997 22.8413Z" fill="black"/>
<path fill-rule="evenodd" clip-rule="evenodd" d="M16.9538 10.8422H7.04443C6.85612 10.8422 6.70099 10.6859 6.70099 10.4939C6.70099 10.3019 6.85612 10.1456 7.04443 10.1456H16.9538C17.1455 10.1456 17.3004 10.3019 17.3004 10.4939C17.3004 10.6859 17.1455 10.8422 16.9538 10.8422ZM17.3503 13.7954H6.6491C6.46079 13.7954 6.30566 13.6403 6.30566 13.4482C6.30566 13.2551 6.46079 13.1 6.6491 13.1H17.3503C17.5409 13.1 17.696 13.2551 17.696 13.4482C17.696 13.6403 17.5409 13.7954 17.3503 13.7954Z" fill="black"/>
<path fill-rule="evenodd" clip-rule="evenodd" d="M17.3503 16.5269H6.6491C6.46079 16.5269 6.30566 16.3718 6.30566 16.1789C6.30566 15.9881 6.46079 15.8318 6.6491 15.8318H17.3503C17.5409 15.8318 17.696 15.9881 17.696 16.1789C17.696 16.3718 17.5409 16.5269 17.3503 16.5269ZM16.9538 19.4813H7.04443C6.85612 19.4813 6.70099 19.325 6.70099 19.1322C6.70099 18.9413 6.85612 18.785 7.04443 18.785H16.9538C17.1455 18.785 17.3004 18.9413 17.3004 19.1322C17.3004 19.325 17.1455 19.4813 16.9538 19.4813Z" fill="black"/>
<path fill-rule="evenodd" clip-rule="evenodd" d="M12.0003 0.696206C11.2026 0.696206 10.5492 1.35137 10.5492 2.15597C10.5492 2.96314 11.2026 3.61832 12.0003 3.61832C12.8001 3.61832 13.4515 2.96314 13.4515 2.15597C13.4515 1.35137 12.8001 0.696206 12.0003 0.696206ZM12.0003 4.31348C10.8206 4.31348 9.85889 3.34687 9.85889 2.15597C9.85889 0.967361 10.8206 -8.7738e-05 12.0003 -8.7738e-05C13.1824 -8.7738e-05 14.1406 0.966218 14.1406 2.15597C14.1406 3.34687 13.1801 4.31348 12.0003 4.31348Z" fill="black"/>
</svg>
