<svg width="28" height="32" viewBox="0 0 28 32" fill="none" xmlns="http://www.w3.org/2000/svg">
<path fill-rule="evenodd" clip-rule="evenodd" d="M10.6756 17.9388C11.2474 17.3617 11.2474 16.4266 10.6756 15.8483C10.1039 15.2714 9.17831 15.2714 8.60655 15.8483C8.0348 16.4266 8.0348 17.3606 8.60655 17.9388C9.17831 18.5145 10.1039 18.5145 10.6756 17.9388Z" fill="#595965"/>
<path fill-rule="evenodd" clip-rule="evenodd" d="M8.606 15.8481C9.17775 15.2724 10.1033 15.2724 10.6779 15.8481C11.2468 16.4264 11.2468 17.3615 10.6779 17.9398C10.1033 18.5155 9.17775 18.5155 8.606 17.9398C8.03424 17.3615 8.03424 16.4264 8.606 15.8481ZM11.629 18.9007C12.5064 18.0144 12.6819 16.691 12.1582 15.6284C12.0252 15.3604 11.8497 15.1104 11.629 14.8873C11.4676 14.7233 11.2893 14.5839 11.1025 14.4676C10.4203 14.0502 9.60232 13.9499 8.85791 14.1676C8.41636 14.2959 7.99745 14.5359 7.65213 14.8873C7.61533 14.9253 7.57853 14.9653 7.54174 15.0056C6.55673 16.1204 6.59353 17.8315 7.65213 18.9007C7.65779 18.9072 7.66627 18.9152 7.67193 18.9207C8.77298 20.0089 10.5392 20.0021 11.629 18.9007Z" fill="#EDEBFD"/>
<path fill-rule="evenodd" clip-rule="evenodd" d="M7.65244 18.9008C6.59385 17.8317 6.55705 16.1206 7.54205 15.0058C7.19107 15.0438 6.85425 15.1966 6.58818 15.4666L0.805555 21.3002C0.188513 21.9276 0.188513 22.9511 0.805555 23.577C1.42826 24.2022 2.44156 24.2022 3.06143 23.577L7.67224 18.922L7.65244 18.9008Z" fill="#AA7569"/>
<path fill-rule="evenodd" clip-rule="evenodd" d="M8.8584 14.168C9.60281 13.9503 10.4208 14.0506 11.103 14.468L13.6617 11.8832L16.7356 8.77953L19.8095 5.67587L22.8862 2.57221L23.557 1.89451C23.908 1.5408 23.908 0.963941 23.557 0.612231C23.2089 0.25738 22.6371 0.25738 22.289 0.612231L8.8584 14.168Z" fill="#D9B3AF"/>
<path fill-rule="evenodd" clip-rule="evenodd" d="M21.8082 24.5542C21.5931 24.8967 21.4289 25.273 21.3242 25.6759C21.2421 25.9973 21.1968 26.3344 21.1968 26.6824C21.1968 27.321 21.3468 27.9247 21.6128 28.4592C21.8619 28.9558 22.2073 29.3924 22.6262 29.7438L21.2958 31.6523L23.5574 31.2115L25.819 31.6523L24.4858 29.7438C24.9104 29.3924 25.2557 28.9558 25.5019 28.4592C25.7708 27.9247 25.918 27.321 25.918 26.6824C25.918 26.3344 25.8727 25.9973 25.7906 25.6759C25.6859 25.273 25.5217 24.8967 25.3095 24.5542C24.8962 25.2439 24.265 25.6859 23.5574 25.6859C22.8498 25.6859 22.2214 25.2439 21.8082 24.5542Z" fill="#5C9CEE"/>
<path fill-rule="evenodd" clip-rule="evenodd" d="M21.6127 28.4587C21.3466 27.9242 21.1966 27.3205 21.1966 26.6819C21.1966 26.3339 21.2419 25.9968 21.324 25.6754C20.6843 25.7276 20.0758 26.0859 19.7276 26.6911C19.2974 27.4442 19.3965 28.3593 19.9031 28.9979C20.5202 29.095 21.157 28.8985 21.6127 28.4587Z" fill="#5392E6"/>
<path fill-rule="evenodd" clip-rule="evenodd" d="M21.8076 24.5536C22.2209 25.2433 22.8492 25.6853 23.5569 25.6853C24.2645 25.6853 24.8957 25.2433 25.3089 24.5536C24.8872 23.8885 24.2786 23.3582 23.5569 23.0402C22.8351 23.3582 22.2294 23.8896 21.8076 24.5536Z" fill="#5392E6"/>
<path fill-rule="evenodd" clip-rule="evenodd" d="M25.9185 26.6821C25.9185 27.3207 25.7685 27.9244 25.5024 28.4589C25.9581 28.8987 26.595 29.0952 27.2092 28.9992C27.7215 28.3595 27.8177 27.4455 27.3875 26.6933C27.0422 26.0861 26.4336 25.7278 25.7911 25.6778C25.876 25.997 25.9185 26.3341 25.9185 26.6821Z" fill="#5392E6"/>
<path fill-rule="evenodd" clip-rule="evenodd" d="M23.5575 21.2313C23.8745 21.2313 24.1887 21.1085 24.4293 20.8676C24.9104 20.3799 24.9104 19.5919 24.4293 19.1076C24.1887 18.8654 23.8745 18.7436 23.5575 18.7436C23.2433 18.7436 22.9291 18.8654 22.6885 19.1076C22.2073 19.5919 22.2073 20.3799 22.6885 20.8676C22.9291 21.1085 23.2433 21.2313 23.5575 21.2313Z" fill="#FFAE06"/>
<path fill-rule="evenodd" clip-rule="evenodd" d="M20.2127 29.3695C20.0938 29.3695 19.9721 29.3604 19.8532 29.3415C19.7683 29.3292 19.6918 29.2846 19.6381 29.2164C19.0295 28.4521 18.9446 27.3684 19.4286 26.5178C19.8221 25.8358 20.5183 25.393 21.2996 25.3293C21.4892 25.3136 21.6562 25.4576 21.6675 25.6484C21.6845 25.8404 21.543 26.0078 21.3533 26.0236C20.8014 26.0681 20.3032 26.3827 20.0258 26.8673C19.706 27.4295 19.7371 28.1384 20.0938 28.6707C20.5636 28.7052 21.0363 28.5367 21.3788 28.2075C21.5147 28.0747 21.7326 28.0804 21.8656 28.2198C21.9958 28.3592 21.9902 28.5804 21.8515 28.7132C21.4128 29.1349 20.8184 29.3695 20.2127 29.3695Z" fill="black"/>
<path fill-rule="evenodd" clip-rule="evenodd" d="M26.9027 29.3695C26.2998 29.3695 25.7054 29.1349 25.2638 28.7109C25.128 28.5792 25.1195 28.3581 25.2525 28.2187C25.3828 28.0792 25.6007 28.0735 25.7394 28.2075C26.0819 28.5358 26.5546 28.7041 27.0244 28.6707C27.3811 28.1384 27.4122 27.4295 27.0867 26.8673C26.8121 26.3827 26.3168 26.0681 25.7648 26.0236C25.5724 26.0078 25.4308 25.8404 25.445 25.6484C25.462 25.4576 25.629 25.3136 25.8158 25.3293C26.597 25.393 27.2961 25.8358 27.6839 26.5178C28.1708 27.3695 28.0887 28.4521 27.4801 29.2164C27.4263 29.2846 27.3471 29.3292 27.265 29.3415C27.1461 29.3604 27.0244 29.3695 26.9027 29.3695Z" fill="black"/>
<path fill-rule="evenodd" clip-rule="evenodd" d="M23.557 30.8637C23.5797 30.8637 23.6023 30.8671 23.6221 30.8703L25.0458 31.1471L24.2108 29.9497C24.191 29.924 24.174 29.8937 24.1627 29.8614C24.1146 29.7232 24.157 29.568 24.2674 29.4755C25.0968 28.7835 25.5723 27.7655 25.5723 26.6818C25.5723 25.2912 24.7883 24.029 23.557 23.4241C22.3286 24.029 21.5417 25.2912 21.5417 26.6818C21.5417 27.7655 22.0172 28.7835 22.8466 29.4755C22.957 29.568 23.0022 29.7232 22.9541 29.8614C22.94 29.8937 22.923 29.9252 22.9032 29.9532L22.071 31.1471L23.4919 30.8703C23.5145 30.8671 23.5372 30.8637 23.557 30.8637ZM25.8186 32C25.7959 32 25.7789 31.9966 25.7563 31.992L23.557 31.5657L21.3606 31.992C21.2219 32.0189 21.0832 31.9586 21.0068 31.8391C20.9303 31.722 20.936 31.5669 21.0152 31.4509L22.1701 29.7969C21.3294 28.9832 20.8511 27.8661 20.8511 26.6818C20.8511 24.9633 21.8615 23.4096 23.4211 22.7221C23.5089 22.683 23.608 22.683 23.6957 22.7221C25.2553 23.4096 26.2629 24.9644 26.2629 26.6818C26.2629 27.8661 25.7846 28.9832 24.9468 29.7969L26.1016 31.4509C26.1809 31.5669 26.1865 31.7197 26.1101 31.8391C26.045 31.9408 25.9346 32 25.8186 32Z" fill="black"/>
<path fill-rule="evenodd" clip-rule="evenodd" d="M23.5569 26.0327C22.7502 26.0327 22.0086 25.5607 21.5133 24.7347C21.4171 24.5696 21.468 24.3565 21.6322 24.2559C21.7935 24.1565 22.0086 24.2113 22.1049 24.3753C22.47 24.987 22.9993 25.3384 23.5569 25.3384C24.1174 25.3384 24.6438 24.987 25.0089 24.3753C25.108 24.2113 25.3175 24.1565 25.4844 24.2559C25.6486 24.3565 25.6967 24.5696 25.6005 24.7347C25.108 25.5607 24.3664 26.0327 23.5569 26.0327Z" fill="black"/>
<path fill-rule="evenodd" clip-rule="evenodd" d="M23.5573 24.8977C23.3676 24.8977 23.2119 24.7414 23.2119 24.5486V24.3509C23.2119 24.1589 23.3676 24.0037 23.5573 24.0037C23.7497 24.0037 23.9026 24.1589 23.9026 24.3509V24.5486C23.9026 24.7414 23.7497 24.8977 23.5573 24.8977Z" fill="black"/>
<path fill-rule="evenodd" clip-rule="evenodd" d="M1.93607 24.3944C1.41526 24.3944 0.928391 24.1916 0.56326 23.8221C0.19813 23.4539 0 22.9627 0 22.4382C0 21.9147 0.19813 21.4236 0.56326 21.0542L6.34309 15.2217C6.65444 14.908 7.06769 14.7083 7.50641 14.6603C7.69605 14.6403 7.86304 14.7774 7.88568 14.9683C7.9055 15.1603 7.76964 15.3323 7.58 15.3523C7.2913 15.3834 7.03372 15.5086 6.82992 15.7128L1.05296 21.5464C0.56329 22.0396 0.56329 22.8387 1.05296 23.331C1.28506 23.5687 1.60207 23.6981 1.93607 23.6981C2.27289 23.6981 2.58424 23.5687 2.81917 23.331L7.33375 18.7754C7.35074 18.7316 7.37622 18.6916 7.41018 18.6559C7.54321 18.5196 7.76115 18.5196 7.89701 18.6559L7.91685 18.6759C7.98195 18.7396 8.01874 18.8288 8.01874 18.9214C8.01874 19.0151 7.98195 19.1022 7.91685 19.1682L3.306 23.8221C2.94087 24.1916 2.45404 24.3944 1.93607 24.3944Z" fill="black"/>
<path fill-rule="evenodd" clip-rule="evenodd" d="M11.104 14.8154C11.0163 14.8154 10.9257 14.782 10.8578 14.714C10.7247 14.5777 10.7247 14.358 10.8578 14.2229L23.3147 1.64821C23.5326 1.43164 23.5326 1.07681 23.3147 0.858238C23.2099 0.75424 23.0712 0.696237 22.9241 0.696237C22.774 0.696237 22.6354 0.75424 22.5306 0.858238L9.10289 14.4137C8.96703 14.5509 8.74909 14.5509 8.61606 14.4137C8.48019 14.2797 8.48019 14.06 8.61606 13.9226L22.0438 0.367105C22.2787 0.13168 22.5929 -4.19617e-05 22.9241 -4.19617e-05C23.2552 -4.19617e-05 23.5666 0.13168 23.8015 0.367105C24.2855 0.857098 24.2855 1.65166 23.8015 2.14165L11.3475 14.714C11.2795 14.782 11.1918 14.8154 11.104 14.8154Z" fill="black"/>
<path fill-rule="evenodd" clip-rule="evenodd" d="M21.3466 6.66809C20.6758 6.66809 20.0418 6.40351 19.5663 5.92238C19.4304 5.78723 19.4304 5.56753 19.5663 5.43011C19.7021 5.29525 19.9201 5.29525 20.0531 5.43011C20.3984 5.77953 20.8598 5.97038 21.3466 5.97038C21.8363 5.97038 22.2948 5.77953 22.6401 5.43011C23.3562 4.71041 23.3562 3.53956 22.6401 2.81872C22.5071 2.68358 22.5071 2.46387 22.6401 2.32758C22.776 2.19244 22.994 2.19244 23.1298 2.32758C24.112 3.31871 24.112 4.93125 23.1298 5.92238C22.6543 6.40351 22.0203 6.66809 21.3466 6.66809Z" fill="black"/>
<path fill-rule="evenodd" clip-rule="evenodd" d="M18.2724 9.77002C17.6299 9.77002 16.9845 9.52229 16.492 9.02659C16.3562 8.88945 16.3562 8.66946 16.492 8.5346C16.6279 8.39717 16.843 8.39717 16.9789 8.5346C17.6921 9.25316 18.8526 9.25316 19.5659 8.5346C19.9112 8.18518 20.1037 7.72205 20.1037 7.22863C20.1037 6.73435 19.9112 6.2712 19.5659 5.92178C19.4329 5.78664 19.4329 5.56694 19.5659 5.42951C19.7018 5.29466 19.9197 5.29466 20.0556 5.42951C20.5311 5.90951 20.7915 6.54892 20.7915 7.22863C20.7915 7.90604 20.5311 8.54574 20.0556 9.02659C19.5631 9.52229 18.9178 9.77002 18.2724 9.77002Z" fill="black"/>
<path fill-rule="evenodd" clip-rule="evenodd" d="M15.1987 12.8745C14.525 12.8745 13.8938 12.61 13.4183 12.1302C13.2824 11.9928 13.2824 11.7731 13.4183 11.6368C13.5513 11.5008 13.7693 11.5008 13.9051 11.6368C14.2505 11.9862 14.709 12.1794 15.1987 12.1794C15.6883 12.1794 16.1469 11.9862 16.4922 11.6368C16.8375 11.2885 17.03 10.8243 17.03 10.3323C17.03 9.83884 16.8375 9.37457 16.4922 9.02629C16.3563 8.89029 16.3563 8.67029 16.4922 8.53315C16.6281 8.39801 16.8432 8.39801 16.979 8.53315C17.4574 9.01314 17.7178 9.6537 17.7178 10.3323C17.7178 11.0097 17.4574 11.6503 16.979 12.1302C16.5035 12.61 15.8723 12.8745 15.1987 12.8745Z" fill="black"/>
<path fill-rule="evenodd" clip-rule="evenodd" d="M12.1588 15.9768C11.972 15.9768 11.8191 15.8248 11.8135 15.634C11.8135 15.4411 11.9635 15.2837 12.1532 15.2814C12.6315 15.2737 13.0787 15.0817 13.4184 14.74C13.7609 14.392 13.9533 13.9277 13.9533 13.4354C13.9533 12.9411 13.7609 12.4769 13.4184 12.1297C13.2825 11.9923 13.2825 11.7726 13.4184 11.6363C13.5514 11.5003 13.7693 11.5003 13.9052 11.6363C14.3807 12.1174 14.6439 12.7557 14.6439 13.4354C14.6439 14.1128 14.3807 14.7522 13.9052 15.2322C13.441 15.7022 12.8212 15.9654 12.1645 15.9768C12.1617 15.9768 12.1588 15.9768 12.1588 15.9768Z" fill="black"/>
<path fill-rule="evenodd" clip-rule="evenodd" d="M9.64035 14.4055C9.01199 14.4055 8.37796 14.6475 7.89678 15.1329C7.43258 15.6029 7.17503 16.2277 7.17503 16.8952C7.17503 17.5594 7.43258 18.1854 7.89678 18.6554C8.85914 19.6263 10.4244 19.6263 11.3868 18.6554C11.8538 18.1854 12.1085 17.5594 12.1085 16.8952C12.1085 16.2277 11.8538 15.6029 11.3868 15.1329C10.9084 14.6475 10.2744 14.4055 9.64035 14.4055ZM9.64035 20.0782C8.83367 20.0782 8.02416 19.7668 7.40994 19.1463C6.81271 18.546 6.48438 17.7446 6.48438 16.894C6.48438 16.0426 6.81271 15.2412 7.40994 14.6409C8.6412 13.3987 10.6423 13.3987 11.8736 14.6409C12.468 15.2412 12.7992 16.0415 12.7992 16.894C12.7992 17.7446 12.4708 18.5437 11.8736 19.1463C11.2594 19.7668 10.4499 20.0782 9.64035 20.0782Z" fill="black"/>
<path fill-rule="evenodd" clip-rule="evenodd" d="M9.64009 15.7639C9.3429 15.7639 9.06267 15.8813 8.85038 16.0968C8.41449 16.5353 8.41449 17.2527 8.85038 17.6936C9.06267 17.9067 9.3429 18.0241 9.64009 18.0241C9.94012 18.0241 10.2203 17.9067 10.4354 17.6936C10.8685 17.2527 10.8685 16.5353 10.4354 16.0968C10.2203 15.8825 9.94012 15.7639 9.64009 15.7639ZM9.64009 18.7181C9.15892 18.7181 8.70321 18.5284 8.36355 18.1847C7.65876 17.4727 7.65876 16.3153 8.36355 15.6033C8.70321 15.2573 9.15892 15.0699 9.64009 15.0699C10.1241 15.0699 10.577 15.2573 10.9223 15.6033C11.6271 16.3153 11.6271 17.4727 10.9223 18.1847C10.577 18.5284 10.1241 18.7181 9.64009 18.7181Z" fill="black"/>
<path fill-rule="evenodd" clip-rule="evenodd" d="M12.5213 20.1482C12.4335 20.1482 12.343 20.1148 12.2779 20.0468L9.39648 17.1405C9.26628 17.0031 9.26628 16.7845 9.39648 16.6471C9.53234 16.5122 9.75028 16.5122 9.88614 16.6471L12.7647 19.5533C12.9006 19.6908 12.9006 19.9093 12.7647 20.0468C12.6968 20.1148 12.609 20.1482 12.5213 20.1482Z" fill="black"/>
<path fill-rule="evenodd" clip-rule="evenodd" d="M11.5683 21.11C11.4805 21.11 11.3928 21.0766 11.3249 21.0086C11.1918 20.8723 11.1918 20.6526 11.3249 20.5151L13.2326 18.5923C13.3656 18.4583 13.5836 18.4583 13.7195 18.5923C13.8525 18.7283 13.8525 18.9472 13.7195 19.0846L11.8145 21.0086C11.7466 21.0766 11.656 21.11 11.5683 21.11Z" fill="black"/>
<path fill-rule="evenodd" clip-rule="evenodd" d="M23.5573 19.0906C23.3676 19.0906 23.2119 18.9366 23.2119 18.7434V1.89429C23.2119 1.70257 23.3676 1.54629 23.5573 1.54629C23.7497 1.54629 23.9026 1.70257 23.9026 1.89429V18.7434C23.9026 18.9366 23.7497 19.0906 23.5573 19.0906Z" fill="black"/>
<path fill-rule="evenodd" clip-rule="evenodd" d="M22.9315 19.3533C22.5862 19.7027 22.5862 20.2718 22.9315 20.6201C23.2769 20.9692 23.8401 20.9692 24.1855 20.6201C24.5308 20.2718 24.5308 19.7027 24.1855 19.3533C23.8401 19.005 23.2769 19.005 22.9315 19.3533ZM23.5571 21.5775C23.1552 21.5775 22.7476 21.4224 22.4447 21.1121C21.8277 20.4915 21.8277 19.4827 22.4447 18.8621C23.0589 18.2416 24.0581 18.2416 24.6723 18.8621C25.2865 19.4827 25.2865 20.4915 24.6723 21.1121C24.3666 21.4224 23.9619 21.5775 23.5571 21.5775Z" fill="black"/>
<path fill-rule="evenodd" clip-rule="evenodd" d="M23.5573 23.3901C23.3676 23.3901 23.2119 23.235 23.2119 23.0407V21.2316C23.2119 21.0385 23.3676 20.8825 23.5573 20.8825C23.7497 20.8825 23.9026 21.0385 23.9026 21.2316V23.0407C23.9026 23.235 23.7497 23.3901 23.5573 23.3901Z" fill="black"/>
</svg>
