<svg width="38" height="32" viewBox="0 0 38 32" fill="none" xmlns="http://www.w3.org/2000/svg">
<path fill-rule="evenodd" clip-rule="evenodd" d="M7.49413 3.7785L13.4011 2.40094L13.5575 2.36517C13.9273 2.27726 14.1567 1.90586 14.0729 1.53583C13.987 1.16477 13.6159 0.934443 13.2474 1.01826L7.18402 2.43297C6.81691 2.51951 6.58348 2.89227 6.6683 3.26094C6.74396 3.57884 7.02625 3.79452 7.34043 3.79724C7.39064 3.79724 7.44357 3.79077 7.49413 3.7785Z" fill="#BC845E"/>
<path fill-rule="evenodd" clip-rule="evenodd" d="M13.4018 7.01914V2.40191L7.49479 3.77947C7.44288 3.79174 7.39131 3.79821 7.33838 3.79821V7.02051H13.4018V7.01914Z" fill="#D19A6E"/>
<path fill-rule="evenodd" clip-rule="evenodd" d="M25.4675 9.41065H6.31787L8.16392 13.4701C8.96192 13.743 9.75993 14.2115 10.5562 14.2115C11.683 14.2115 12.8081 13.2769 13.9345 13.2769C15.0613 13.2769 16.1877 14.2115 17.3114 14.2115C18.4382 14.2115 19.5646 13.2769 20.691 13.2769C21.5725 13.2769 22.4526 13.848 23.3337 14.0957L25.4675 9.41065Z" fill="#D19A6E"/>
<path fill-rule="evenodd" clip-rule="evenodd" d="M6.31808 9.41113H25.4677L26.5561 7.0192H5.22998L6.31808 9.41113Z" fill="#BC845E"/>
<path fill-rule="evenodd" clip-rule="evenodd" d="M19.249 4.62896V7.01917H24.4459V4.62896C24.4459 4.09094 24.0072 3.65038 23.4718 3.65038H21.8483H20.2231C19.6877 3.65038 19.249 4.09094 19.249 4.62896Z" fill="#71C285"/>
<path fill-rule="evenodd" clip-rule="evenodd" d="M20.2378 2.03303C20.2378 2.92608 20.9588 3.65015 21.8484 3.65015C22.7377 3.65015 23.4586 2.92608 23.4586 2.03303C23.4586 1.13861 22.7377 0.415932 21.8484 0.415932C20.9588 0.415932 20.2378 1.13861 20.2378 2.03303Z" fill="#F9C5B8"/>
<path fill-rule="evenodd" clip-rule="evenodd" d="M31.6294 25.6336C31.0941 25.6336 30.5875 25.76 30.1383 25.9876C29.7223 26.1964 29.3552 26.4922 29.0607 26.85L27.46 25.716L27.8284 27.6408L27.46 29.5652L29.0607 28.4327C29.3552 28.7894 29.7223 29.0848 30.1383 29.2937C30.5875 29.5213 31.0941 29.6477 31.6294 29.6477C31.9209 29.6477 32.2045 29.6119 32.4736 29.54C32.8102 29.4521 33.127 29.3097 33.4144 29.1274C32.8353 28.7785 32.4644 28.2422 32.4644 27.6408C32.4644 27.0391 32.8353 26.5041 33.4144 26.1525C33.127 25.9716 32.8102 25.8292 32.4736 25.7412C32.2045 25.6721 31.9209 25.6336 31.6294 25.6336Z" fill="#FFAE06"/>
<path fill-rule="evenodd" clip-rule="evenodd" d="M29.6846 24.5346C29.6025 25.0604 29.7694 25.5994 30.1379 25.9882C30.5871 25.7606 31.0936 25.6341 31.629 25.6341C31.9205 25.6341 32.2041 25.6713 32.4718 25.7418C32.4294 25.195 32.1285 24.6784 31.6209 24.383C30.9875 24.017 30.22 24.1022 29.6846 24.5346Z" fill="#FFAE06"/>
<path fill-rule="evenodd" clip-rule="evenodd" d="M31.6295 29.6479C31.0941 29.6479 30.5876 29.5215 30.1384 29.2953C29.7699 29.684 29.6043 30.2244 29.6851 30.7502C30.2205 31.1826 30.988 31.265 31.6214 30.8991C32.129 30.6037 32.4299 30.0871 32.4737 29.5402C32.2046 29.6121 31.921 29.6479 31.6295 29.6479Z" fill="#FFAE06"/>
<path fill-rule="evenodd" clip-rule="evenodd" d="M32.4644 27.6422C32.4644 28.2436 32.8352 28.7785 33.4144 29.1274C33.9738 28.7734 34.4176 28.2541 34.6843 27.6422C34.4176 27.0285 33.9738 26.5106 33.4144 26.1539C32.8352 26.5042 32.4644 27.0391 32.4644 27.6422Z" fill="#FFAE06"/>
<path fill-rule="evenodd" clip-rule="evenodd" d="M21.7819 29.5868C22.3387 29.2287 22.7838 28.7108 23.0492 28.0971C22.7838 27.4852 22.3387 26.9673 21.7819 26.6119C21.2014 26.9618 20.8306 27.4971 20.8306 28.0971C20.8329 28.7002 21.2014 29.2352 21.7819 29.5868Z" fill="#FFAE06"/>
<path fill-rule="evenodd" clip-rule="evenodd" d="M20.833 28.0971C20.833 27.4971 21.2028 26.9618 21.782 26.6119C21.4956 26.4269 21.1791 26.2858 20.8398 26.1993C20.5708 26.1274 20.2898 26.0916 19.9957 26.0916C19.4613 26.0916 18.9537 26.218 18.5045 26.4442C18.0872 26.6531 17.7211 26.9499 17.4283 27.3066L15.8262 26.1741L16.1943 28.0971L15.8262 30.0205L17.4283 28.8893C17.7211 29.2471 18.0872 29.5415 18.5045 29.7517C18.9537 29.978 19.4613 30.1044 19.9957 30.1044C20.2898 30.1044 20.5708 30.0672 20.8398 29.9981C21.1791 29.9074 21.4956 29.7677 21.782 29.5854C21.2015 29.2352 20.833 28.7002 20.833 28.0971Z" fill="#FFAE06"/>
<path fill-rule="evenodd" clip-rule="evenodd" d="M19.9954 26.0921C20.2895 26.0921 20.5705 26.1278 20.8395 26.1997C20.7958 25.6528 20.4962 25.1363 19.9872 24.8409C19.3565 24.4749 18.5877 24.5574 18.0523 24.9898C17.9715 25.5155 18.1371 26.0559 18.5042 26.4447C18.9521 26.2185 19.4586 26.0921 19.9954 26.0921Z" fill="#FFAE06"/>
<path fill-rule="evenodd" clip-rule="evenodd" d="M19.9954 30.1061C19.461 30.1061 18.9534 29.9797 18.5042 29.7521C18.1371 30.1409 17.9715 30.6823 18.0523 31.2057C18.5877 31.6408 19.3565 31.7232 19.9872 31.3573C20.4962 31.0632 20.7958 30.5453 20.8395 29.9985C20.5705 30.0676 20.2868 30.1061 19.9954 30.1061Z" fill="#FFAE06"/>
<path fill-rule="evenodd" clip-rule="evenodd" d="M8.4147 31.3573C8.92228 31.0632 9.22424 30.5453 9.26665 29.9985C8.99793 30.0703 8.7153 30.1061 8.42386 30.1061C7.88711 30.1061 7.38091 29.9797 6.9317 29.7521C6.56323 30.1409 6.40002 30.6823 6.47976 31.2057C7.01651 31.6408 7.78228 31.7232 8.4147 31.3573Z" fill="#FFAE06"/>
<path fill-rule="evenodd" clip-rule="evenodd" d="M8.42437 30.1058C8.71581 30.1058 8.99844 30.0701 9.26715 29.9982C9.60542 29.9103 9.92199 29.7678 10.2111 29.5869C9.63054 29.2353 9.25935 28.7003 9.25935 28.0972C9.25935 27.4972 9.63054 26.9619 10.2111 26.612C9.92199 26.4297 9.60542 26.2873 9.26715 26.1994C8.99844 26.1275 8.71581 26.0917 8.42437 26.0917C7.88762 26.0917 7.38142 26.2195 6.9322 26.4457C6.5159 26.6546 6.15014 26.95 5.85462 27.3067L4.25488 26.1742L4.622 28.0972L4.25488 30.0234L5.85462 28.8922C6.15014 29.2472 6.5159 29.5416 6.9322 29.7518C7.38142 29.9794 7.88762 30.1058 8.42437 30.1058Z" fill="#FFAE06"/>
<path fill-rule="evenodd" clip-rule="evenodd" d="M6.9317 26.4447C7.38091 26.2185 7.88711 26.0921 8.42386 26.0921C8.7153 26.0921 8.99793 26.1278 9.26665 26.1997C9.22424 25.6528 8.92228 25.1363 8.4147 24.8409C7.78228 24.4749 7.01651 24.5574 6.47976 24.9898C6.40002 25.5155 6.56323 26.0559 6.9317 26.4447Z" fill="#FFAE06"/>
<path fill-rule="evenodd" clip-rule="evenodd" d="M10.21 26.6118C9.6295 26.9617 9.2583 27.497 9.2583 28.097C9.2583 28.7001 9.6295 29.2337 10.21 29.5853C10.7664 29.2286 11.2119 28.7107 11.4783 28.097C11.2119 27.4837 10.7664 26.9658 10.21 26.6118Z" fill="#FFAE06"/>
<path fill-rule="evenodd" clip-rule="evenodd" d="M17.2856 19.5959C17.2856 20.1963 17.6555 20.7313 18.236 21.0815C18.7941 20.7275 19.2379 20.2096 19.5042 19.5959C19.2379 18.9823 18.7941 18.4647 18.236 18.108C17.6555 18.4579 17.2856 18.9959 17.2856 19.5959Z" fill="#FFAE06"/>
<path fill-rule="evenodd" clip-rule="evenodd" d="M17.2861 19.596C17.2861 18.9933 17.6559 18.458 18.2365 18.1081C17.9474 17.9258 17.6322 17.7861 17.2956 17.6954C17.0252 17.6263 16.7415 17.5892 16.4498 17.5892C15.9144 17.5892 15.4082 17.7156 14.9589 17.9418C14.5426 18.152 14.1769 18.4474 13.8827 18.8042L12.2803 17.6716L12.6501 19.596L12.2803 21.5195L13.8827 20.3869C14.1769 20.7433 14.5426 21.0404 14.9589 21.2493C15.4082 21.4755 15.9144 21.6019 16.4498 21.6019C16.7415 21.6019 17.0252 21.5662 17.2956 21.4943C17.6322 21.4077 17.9474 21.2667 18.2365 21.0816C17.6559 20.7341 17.2861 20.1964 17.2861 19.596Z" fill="#FFAE06"/>
<path fill-rule="evenodd" clip-rule="evenodd" d="M14.9588 17.9423C15.408 17.716 15.9142 17.5896 16.4496 17.5896C16.7414 17.5896 17.025 17.6267 17.2955 17.6959C17.2503 17.1504 16.9507 16.6339 16.4418 16.3385C15.8097 15.9725 15.0423 16.0563 14.5069 16.4901C14.4261 17.0144 14.5917 17.5549 14.9588 17.9423Z" fill="#FFAE06"/>
<path fill-rule="evenodd" clip-rule="evenodd" d="M14.9588 21.2517C14.5917 21.6374 14.4261 22.1778 14.5069 22.7035C15.0423 23.1376 15.8097 23.2187 16.4418 22.8528C16.9507 22.5587 17.2503 22.0408 17.2955 21.495C17.025 21.5658 16.7414 21.6043 16.4496 21.6043C15.9142 21.6043 15.408 21.4752 14.9588 21.2517Z" fill="#FFAE06"/>
<path fill-rule="evenodd" clip-rule="evenodd" d="M5.2096 23.0947C5.71853 22.7993 6.01947 22.2813 6.06324 21.7345C5.79419 21.8064 5.51054 21.8435 5.22045 21.8435C4.68506 21.8435 4.17714 21.7171 3.72657 21.4909C3.35947 21.8779 3.19389 22.4183 3.276 22.9427C3.81275 23.3754 4.57887 23.4579 5.2096 23.0947Z" fill="#FFAE06"/>
<path fill-rule="evenodd" clip-rule="evenodd" d="M5.22063 21.8442C5.51072 21.8442 5.79437 21.8071 6.06342 21.7352C6.40135 21.6473 6.71824 21.5062 7.0046 21.325C6.42645 20.975 6.05562 20.4374 6.05562 19.837C6.05562 19.237 6.42645 18.699 7.0046 18.349C6.71824 18.1667 6.40135 18.0257 6.06342 17.9364C5.79437 17.8672 5.51072 17.8287 5.22063 17.8287C4.68524 17.8287 4.17732 17.9579 3.72675 18.1841C3.31215 18.393 2.94504 18.687 2.65054 19.0451L1.0498 17.9125L1.41827 19.837L1.0498 21.7604L2.65054 20.6292C2.94504 20.9856 3.31215 21.28 3.72675 21.4916C4.17732 21.7151 4.68524 21.8442 5.22063 21.8442Z" fill="#FFAE06"/>
<path fill-rule="evenodd" clip-rule="evenodd" d="M3.72676 18.1816C4.17734 17.9554 4.68525 17.829 5.22064 17.829C5.51073 17.829 5.79438 17.8661 6.06343 17.9367C6.01967 17.3898 5.71872 16.8746 5.20979 16.5778C4.57906 16.2119 3.8116 16.2957 3.27485 16.7294C3.1941 17.2538 3.36101 17.7942 3.72676 18.1816Z" fill="#FFAE06"/>
<path fill-rule="evenodd" clip-rule="evenodd" d="M7.00416 18.3491C6.42601 18.699 6.05518 19.2357 6.05518 19.8357C6.05518 20.4374 6.42601 20.9737 7.00416 21.3226C7.56194 20.9673 8.00744 20.4493 8.27513 19.8357C8.00744 19.2224 7.56194 18.7045 7.00416 18.3491Z" fill="#FFAE06"/>
<path fill-rule="evenodd" clip-rule="evenodd" d="M14.959 18.3579C14.8504 18.3579 14.7401 18.314 14.6594 18.2288C14.2074 17.7507 13.9967 17.0761 14.0975 16.4253C14.1148 16.3241 14.1677 16.2307 14.2471 16.1657C14.9284 15.6174 15.892 15.5401 16.6472 15.9793C17.2556 16.3319 17.6519 16.9616 17.7061 17.6628C17.7235 17.8932 17.5538 18.0928 17.3272 18.1116C17.0992 18.1276 16.9003 17.9586 16.8834 17.7296C16.8488 17.2982 16.6062 16.9122 16.2354 16.6968C15.8204 16.457 15.3023 16.4692 14.8992 16.7166C14.8901 17.0628 15.0173 17.4035 15.2572 17.655C15.415 17.8213 15.4082 18.085 15.2426 18.2421C15.1642 18.3204 15.0624 18.3579 14.959 18.3579Z" fill="black"/>
<path fill-rule="evenodd" clip-rule="evenodd" d="M15.5856 23.4973C15.1086 23.4973 14.6329 23.3378 14.2471 23.0264C14.1677 22.961 14.1148 22.8694 14.0975 22.7695C13.9967 22.1174 14.2074 21.441 14.6594 20.966C14.8171 20.7997 15.0781 20.7916 15.244 20.9486C15.4095 21.1084 15.416 21.3705 15.2599 21.5357C15.0187 21.7885 14.8915 22.1306 14.902 22.4765C15.3033 22.7242 15.8204 22.7348 16.2354 22.4939C16.6076 22.2795 16.8488 21.8935 16.8848 21.4625C16.9031 21.2349 17.0992 21.0659 17.3272 21.0819C17.5552 21.1003 17.7262 21.2999 17.7075 21.5275C17.6519 22.2318 17.2556 22.8598 16.6486 23.2128C16.3202 23.4043 15.9531 23.4973 15.5856 23.4973Z" fill="black"/>
<path fill-rule="evenodd" clip-rule="evenodd" d="M13.8832 19.9717C14.0026 19.9717 14.119 20.0248 14.2011 20.1233C14.7578 20.8007 15.5769 21.1881 16.4502 21.1881C17.5505 21.1881 18.5511 20.5693 19.0481 19.5948C18.5511 18.6207 17.5505 18.0019 16.4502 18.0019C15.5769 18.0019 14.7578 18.3917 14.2011 19.0667C14.0633 19.2357 13.8221 19.2687 13.6446 19.1437L12.8812 18.6019L13.055 19.5165C13.0641 19.5669 13.0641 19.6214 13.055 19.6722L12.8812 20.5877L13.6365 20.0528C13.667 20.0303 13.7043 20.0102 13.7427 19.9955C13.7865 19.9822 13.8353 19.9717 13.8832 19.9717ZM16.4502 22.0188C15.4588 22.0188 14.5207 21.6287 13.8234 20.9366L12.5192 21.859C12.3815 21.9588 12.1972 21.9602 12.0568 21.8682C11.9163 21.7779 11.8434 21.6075 11.8766 21.4423L12.2291 19.5976L11.8766 17.7501C11.8434 17.5852 11.9163 17.4162 12.0568 17.3242C12.1972 17.2326 12.3815 17.2363 12.5192 17.3338L13.8234 18.2575C14.5207 17.5651 15.4602 17.1753 16.4515 17.1753C17.9414 17.1753 19.2893 18.0602 19.8854 19.4313C19.9306 19.5376 19.9306 19.6575 19.8854 19.7628C19.2866 21.1336 17.94 22.0188 16.4502 22.0188Z" fill="black"/>
<path fill-rule="evenodd" clip-rule="evenodd" d="M18.2342 21.4995C18.164 21.4995 18.0897 21.4798 18.0222 21.4396C17.2921 20.9966 16.873 20.3271 16.873 19.5976C16.873 18.867 17.2921 18.1948 18.0222 17.7542C18.2183 17.6356 18.4714 17.6997 18.5908 17.8953C18.7076 18.0922 18.6438 18.3478 18.449 18.4663C17.972 18.7526 17.7002 19.1652 17.7002 19.5976C17.7002 20.0303 17.972 20.4416 18.449 20.7288C18.6438 20.8487 18.7076 21.1029 18.5908 21.2985C18.5115 21.4263 18.3761 21.4995 18.2342 21.4995Z" fill="black"/>
<path fill-rule="evenodd" clip-rule="evenodd" d="M18.4072 20.0098H18.2416C18.0123 20.0098 17.8267 19.8247 17.8267 19.5958C17.8267 19.3654 18.0123 19.1794 18.2416 19.1794H18.4072C18.6338 19.1794 18.8194 19.3654 18.8194 19.5958C18.8194 19.8247 18.6338 20.0098 18.4072 20.0098Z" fill="black"/>
<path fill-rule="evenodd" clip-rule="evenodd" d="M6.93173 26.8577C6.82418 26.8577 6.71424 26.8164 6.63349 26.7299C6.18156 26.2518 5.97086 25.5786 6.07163 24.9264C6.08588 24.8252 6.13916 24.7318 6.22127 24.6681C6.89984 24.1172 7.86476 24.0425 8.62137 24.4804C9.22835 24.833 9.62327 25.4614 9.68027 26.1656C9.69757 26.3929 9.52658 26.5926 9.29994 26.6113C9.07194 26.6287 8.87312 26.4583 8.85616 26.2307C8.82291 25.8007 8.57895 25.4133 8.20913 25.1993C7.79316 24.9584 7.27475 24.969 6.87338 25.2164C6.86388 25.5639 6.99245 25.906 7.23097 26.1574C7.38874 26.3224 7.38094 26.5847 7.21672 26.7432C7.13699 26.8188 7.03352 26.8577 6.93173 26.8577Z" fill="black"/>
<path fill-rule="evenodd" clip-rule="evenodd" d="M7.55973 32C7.0827 32 6.60568 31.8416 6.22127 31.5301C6.13916 31.4634 6.08588 31.3717 6.07163 31.2691C5.97086 30.6183 6.18156 29.9433 6.63349 29.467C6.79126 29.3007 7.05217 29.2939 7.21672 29.4524C7.38229 29.6108 7.38874 29.8728 7.23097 30.0381C6.99245 30.2909 6.86523 30.6316 6.87338 30.9778C7.27611 31.2252 7.79316 31.2371 8.20913 30.9962C8.57895 30.7819 8.82291 30.3962 8.85616 29.9648C8.87448 29.7359 9.07465 29.5669 9.29994 29.5842C9.52658 29.6016 9.69758 29.8009 9.68164 30.0299C9.62464 30.7328 9.22835 31.3635 8.62137 31.7151C8.2926 31.9053 7.92548 32 7.55973 32Z" fill="black"/>
<path fill-rule="evenodd" clip-rule="evenodd" d="M5.85393 28.4756C5.97302 28.4756 6.09109 28.5274 6.17184 28.6272C6.72861 29.3022 7.55035 29.692 8.42367 29.692C9.52228 29.692 10.5218 29.0719 11.0199 28.0974C10.5232 27.1246 9.52228 26.5058 8.42367 26.5058C7.55035 26.5058 6.72861 26.8943 6.17184 27.572C6.06056 27.7049 5.87904 27.7567 5.71346 27.697C5.67377 27.6824 5.63644 27.6623 5.60489 27.6371L4.85202 27.1045L5.0281 28.0204C5.0376 28.0708 5.0376 28.1243 5.0281 28.1761L4.85202 29.0916L5.61541 28.5502C5.68836 28.5008 5.77318 28.4756 5.85393 28.4756ZM8.42367 30.5227C7.43092 30.5227 6.49417 30.1298 5.79694 29.4392L4.49136 30.3629C4.35361 30.4586 4.17074 30.4641 4.02892 30.3721C3.88846 30.2791 3.81415 30.1114 3.84876 29.9448L4.20128 28.0974L3.84876 26.2527C3.81415 26.0878 3.88846 25.9188 4.02892 25.8257C4.17074 25.7351 4.35361 25.7392 4.49136 25.8349L5.79694 26.7587C6.49417 26.0666 7.43092 25.6779 8.42367 25.6779C9.91212 25.6779 11.2598 26.5631 11.8562 27.9325C11.9027 28.0378 11.9027 28.1587 11.8562 28.264C11.2598 29.6348 9.91212 30.5227 8.42367 30.5227Z" fill="black"/>
<path fill-rule="evenodd" clip-rule="evenodd" d="M10.2084 30.0009C10.1382 30.0009 10.0625 29.9811 9.99634 29.9412C9.26619 29.4993 8.84717 28.8284 8.84717 28.0975C8.84717 27.3697 9.26619 26.6988 9.99634 26.2583C10.1924 26.1383 10.4456 26.2038 10.5636 26.3993C10.6814 26.5949 10.6179 26.8504 10.4232 26.9677C9.94578 27.2566 9.67434 27.6692 9.67434 28.1003C9.67434 28.5303 9.94714 28.9456 10.4232 29.2318C10.6179 29.3487 10.6814 29.6042 10.5636 29.8002C10.4852 29.9303 10.3502 30.0009 10.2084 30.0009Z" fill="black"/>
<path fill-rule="evenodd" clip-rule="evenodd" d="M10.3786 28.5134H10.213C9.98502 28.5134 9.80078 28.3257 9.80078 28.0967C9.80078 27.8681 9.98502 27.6831 10.213 27.6831H10.3786C10.6079 27.6831 10.7932 27.8681 10.7932 28.0967C10.7932 28.3257 10.6079 28.5134 10.3786 28.5134Z" fill="black"/>
<path fill-rule="evenodd" clip-rule="evenodd" d="M18.5038 26.8577C18.3952 26.8577 18.2876 26.8164 18.2042 26.7299C17.7522 26.2518 17.5416 25.5786 17.645 24.9264C17.6596 24.8252 17.7126 24.7318 17.7919 24.6681C18.4732 24.1172 19.4368 24.0425 20.1924 24.4804C20.8007 24.833 21.197 25.4614 21.2513 26.1656C21.2696 26.3929 21.0986 26.5926 20.8723 26.6113C20.6443 26.6287 20.4455 26.4583 20.4282 26.2307C20.395 25.8007 20.1513 25.4133 19.7802 25.1993C19.3652 24.9584 18.8471 24.969 18.4454 25.2164C18.4362 25.5639 18.5635 25.906 18.802 26.1574C18.9598 26.3224 18.953 26.5847 18.7874 26.7432C18.708 26.8188 18.6059 26.8577 18.5038 26.8577Z" fill="black"/>
<path fill-rule="evenodd" clip-rule="evenodd" d="M19.1314 32C18.6541 32 18.1784 31.8416 17.7926 31.5301C17.7132 31.4634 17.6603 31.3717 17.643 31.2691C17.5422 30.6183 17.7516 29.9433 18.2049 29.467C18.3626 29.3007 18.6239 29.2939 18.7881 29.4524C18.9537 29.6108 18.9591 29.8728 18.8027 30.0381C18.5642 30.2909 18.4369 30.6316 18.4461 30.9778C18.8478 31.2252 19.3659 31.2371 19.7808 30.9962C20.152 30.7819 20.3956 30.3962 20.4289 29.9648C20.4462 29.7359 20.6423 29.5669 20.873 29.5842C21.0993 29.6016 21.2703 29.8009 21.252 30.0299C21.1977 30.7328 20.8014 31.3635 20.1931 31.7151C19.8657 31.9053 19.4986 32 19.1314 32Z" fill="black"/>
<path fill-rule="evenodd" clip-rule="evenodd" d="M17.4271 28.4756C17.5479 28.4756 17.6633 28.5274 17.7454 28.6272C18.3032 29.3022 19.1235 29.692 19.9958 29.692C21.0958 29.692 22.095 29.0719 22.5934 28.0974C22.095 27.1246 21.0958 26.5058 19.9958 26.5058C19.1235 26.5058 18.3018 26.8943 17.7454 27.572C17.6341 27.7049 17.4512 27.7567 17.2867 27.697C17.2483 27.6824 17.21 27.6623 17.1781 27.6371L16.4238 27.1045L16.6003 28.0204C16.6094 28.0708 16.6094 28.1243 16.6003 28.1761L16.4238 29.0916L17.1899 28.5502C17.2629 28.5008 17.3437 28.4756 17.4271 28.4756ZM19.9958 30.5227C19.0058 30.5227 18.0674 30.1298 17.3688 29.4392L16.0635 30.3629C15.9254 30.4586 15.7439 30.4641 15.6021 30.3721C15.4603 30.2791 15.3887 30.1114 15.4206 29.9448L15.7744 28.0974L15.4206 26.2527C15.3887 26.0878 15.4603 25.9188 15.6021 25.8257C15.7439 25.7351 15.9254 25.7392 16.0635 25.8349L17.3688 26.7587C18.066 26.0666 19.0058 25.6779 19.9958 25.6779C21.4853 25.6779 22.8319 26.5631 23.4311 27.9325C23.4773 28.0378 23.4773 28.1587 23.4311 28.264C22.8319 29.6348 21.4853 30.5227 19.9958 30.5227Z" fill="black"/>
<path fill-rule="evenodd" clip-rule="evenodd" d="M21.7812 30.0009C21.7082 30.0009 21.6343 29.9811 21.5678 29.9412C20.8363 29.4993 20.4189 28.8284 20.4189 28.0975C20.4189 27.3697 20.8363 26.6988 21.5678 26.2555C21.7629 26.1373 22.0183 26.201 22.1337 26.398C22.2531 26.5935 22.188 26.8491 21.9946 26.9663C21.5175 27.2552 21.2444 27.6692 21.2444 28.0975C21.2444 28.5303 21.5175 28.9429 21.9946 29.2318C22.188 29.3487 22.2518 29.6042 22.1337 29.8002C22.0584 29.9303 21.9203 30.0009 21.7812 30.0009Z" fill="black"/>
<path fill-rule="evenodd" clip-rule="evenodd" d="M21.9512 28.5134H21.7843C21.5577 28.5134 21.3721 28.3257 21.3721 28.0967C21.3721 27.8681 21.5577 27.6831 21.7843 27.6831H21.9512C22.1792 27.6831 22.3648 27.8681 22.3648 28.0967C22.3648 28.3257 22.1792 28.5134 21.9512 28.5134Z" fill="black"/>
<path fill-rule="evenodd" clip-rule="evenodd" d="M3.7267 18.5985C3.61813 18.5985 3.51093 18.5546 3.42848 18.468C2.97554 17.9913 2.76586 17.3167 2.86662 16.6645C2.88393 16.5633 2.93686 16.47 3.01659 16.4076C3.69652 15.8567 4.6611 15.782 5.41669 16.2199C6.02503 16.5725 6.41997 17.2022 6.47561 17.9048C6.49427 18.1324 6.32327 18.3321 6.09663 18.3494C5.86999 18.3682 5.67116 18.1978 5.6525 17.9688C5.61823 17.5402 5.37565 17.1528 5.00447 16.9375C4.59088 16.6966 4.07142 16.7085 3.66733 16.9572C3.65919 17.302 3.78913 17.6455 4.02629 17.8956C4.18406 18.0618 4.17728 18.3256 4.01171 18.484C3.93232 18.5583 3.83154 18.5985 3.7267 18.5985Z" fill="black"/>
<path fill-rule="evenodd" clip-rule="evenodd" d="M4.35508 23.7371C3.87804 23.7371 3.40202 23.5786 3.01659 23.2686C2.93686 23.2031 2.88393 23.1101 2.86662 23.0089C2.76586 22.3568 2.97554 21.6804 3.42848 21.2054C3.58625 21.0392 3.84886 21.031 4.01171 21.1894C4.17728 21.3479 4.18406 21.6112 4.02629 21.7779C3.78913 22.028 3.6592 22.3714 3.66971 22.7162C4.07143 22.9636 4.59088 22.9742 5.00447 22.7346C5.37701 22.5189 5.61823 22.1333 5.6525 21.7046C5.67116 21.4743 5.86999 21.3053 6.09663 21.3213C6.32327 21.3397 6.49427 21.5393 6.47561 21.7683C6.42133 22.4712 6.02503 23.1019 5.4194 23.4522C5.08928 23.6437 4.72083 23.7371 4.35508 23.7371Z" fill="black"/>
<path fill-rule="evenodd" clip-rule="evenodd" d="M2.65013 20.2111C2.76956 20.2111 2.889 20.2642 2.96975 20.3627C3.52651 21.0404 4.34657 21.4275 5.22023 21.4275C6.32019 21.4275 7.31803 20.8087 7.8178 19.8342C7.31939 18.8601 6.32019 18.244 5.22023 18.244C4.34657 18.244 3.52651 18.6311 2.96975 19.3088C2.85846 19.4431 2.67558 19.4924 2.50967 19.4352C2.47133 19.4192 2.43434 19.3991 2.40109 19.3753L1.64822 18.8427L1.82331 19.7558C1.83383 19.809 1.83383 19.8611 1.82331 19.9143L1.64822 20.8274L2.41161 20.287C2.48456 20.2376 2.56667 20.2111 2.65013 20.2111ZM5.22023 22.2595C4.22748 22.2595 3.28901 21.868 2.59076 21.176L1.28655 22.0997C1.1488 22.1982 0.965933 22.2009 0.824111 22.1089C0.683647 22.0173 0.612043 21.8483 0.643597 21.6816L0.996115 19.8369L0.643597 17.9908C0.612043 17.8259 0.683647 17.6556 0.824111 17.5649C0.965933 17.4733 1.1488 17.476 1.28655 17.5731L2.59076 18.4968C3.28901 17.8045 4.22748 17.4147 5.21751 17.4147C6.70834 17.4147 8.05496 18.3009 8.65278 19.6706C8.69926 19.7773 8.69926 19.8969 8.65278 20.0022C8.05767 21.3729 6.70833 22.2595 5.22023 22.2595Z" fill="black"/>
<path fill-rule="evenodd" clip-rule="evenodd" d="M7.00417 21.7378C6.93258 21.7378 6.85828 21.7194 6.79212 21.6795C6.06299 21.2362 5.6416 20.564 5.6416 19.8358C5.6416 19.1067 6.06299 18.4344 6.79212 17.9925C6.98958 17.8753 7.24133 17.9393 7.36042 18.1349C7.47713 18.3305 7.41368 18.586 7.21724 18.7046C6.74156 18.9922 6.46844 19.4048 6.46844 19.8358C6.46844 20.2686 6.74156 20.6798 7.21724 20.9674C7.41368 21.087 7.47713 21.3412 7.36042 21.5381C7.28238 21.6673 7.14463 21.7378 7.00417 21.7378Z" fill="black"/>
<path fill-rule="evenodd" clip-rule="evenodd" d="M7.17671 20.2509H7.00841C6.78177 20.2509 6.59619 20.0645 6.59619 19.8355C6.59619 19.6055 6.78177 19.4219 7.00841 19.4219H7.17671C7.40335 19.4219 7.58893 19.6055 7.58893 19.8355C7.58893 20.0645 7.40335 20.2509 7.17671 20.2509Z" fill="black"/>
<path fill-rule="evenodd" clip-rule="evenodd" d="M30.1378 26.4033C30.0279 26.4033 29.9193 26.358 29.8382 26.2728C29.3849 25.7951 29.1769 25.1215 29.2763 24.4693C29.2923 24.3681 29.3452 24.2765 29.425 24.2111C30.1059 23.6628 31.0695 23.5855 31.8264 24.0233C32.4334 24.3763 32.8283 25.007 32.8826 25.7086C32.9013 25.9375 32.7316 26.1372 32.505 26.1542C32.277 26.1716 32.0795 26.0013 32.0609 25.7736C32.0266 25.3426 31.784 24.9566 31.4115 24.7423C30.9979 24.5027 30.4811 24.5146 30.0767 24.761C30.0676 25.1068 30.1961 25.4489 30.4333 25.7004C30.5938 25.867 30.5846 26.1277 30.4201 26.2861C30.3434 26.3648 30.2399 26.4033 30.1378 26.4033Z" fill="black"/>
<path fill-rule="evenodd" clip-rule="evenodd" d="M30.7662 31.5419C30.2864 31.5419 29.8104 31.3821 29.425 31.0706C29.3452 31.0056 29.2923 30.9136 29.2763 30.8124C29.1769 30.1602 29.3849 29.4869 29.8382 29.0089C29.9946 28.8426 30.2572 28.8358 30.4228 28.9942C30.587 29.1527 30.5952 29.415 30.4374 29.5813C30.1975 29.8328 30.0703 30.1749 30.0794 30.5224C30.4811 30.7684 30.9992 30.7817 31.4128 30.5384C31.7864 30.3241 32.0276 29.9381 32.0622 29.5081C32.0809 29.2804 32.277 29.1087 32.505 29.1275C32.734 29.1448 32.9037 29.3445 32.8867 29.5721C32.8297 30.2747 32.4334 30.9057 31.8278 31.257C31.4976 31.4485 31.1319 31.5419 30.7662 31.5419Z" fill="black"/>
<path fill-rule="evenodd" clip-rule="evenodd" d="M29.0602 28.0178C29.1797 28.0178 29.2977 28.0709 29.3785 28.1694C29.9349 28.8471 30.7553 29.2342 31.629 29.2342C32.7289 29.2342 33.7295 28.6154 34.2265 27.6426C33.7295 26.6681 32.7289 26.0507 31.629 26.0507C30.7553 26.0507 29.9339 26.4378 29.3785 27.1155C29.2417 27.2818 28.9995 27.3152 28.8217 27.1898L28.0583 26.6494L28.2347 27.5625C28.2453 27.6157 28.2453 27.6692 28.2347 27.7182L28.0583 28.6355L28.8153 28.1002C28.8468 28.0764 28.8814 28.0562 28.9211 28.043C28.9662 28.0269 29.0127 28.0178 29.0602 28.0178ZM31.629 30.0621C30.6362 30.0621 29.6977 29.6734 29.0009 28.9813L27.698 29.9051C27.5599 30.0022 27.3757 30.0063 27.2352 29.9146C27.0947 29.824 27.0221 29.6536 27.0537 29.4873L27.4076 27.6426L27.0537 25.7952C27.0221 25.6299 27.0947 25.4609 27.2352 25.3693C27.3757 25.2773 27.5599 25.2813 27.698 25.3798L29.0009 26.3008C29.6977 25.6088 30.6376 25.22 31.629 25.22C33.1184 25.22 34.465 26.1052 35.0615 27.476C35.108 27.5826 35.108 27.7036 35.0615 27.8089C34.465 29.1783 33.1184 30.0621 31.629 30.0621Z" fill="black"/>
<path fill-rule="evenodd" clip-rule="evenodd" d="M33.4126 29.5443C33.3414 29.5443 33.2671 29.5228 33.2006 29.4843C32.4704 29.0424 32.0518 28.3701 32.0518 27.6423C32.0518 26.9128 32.4704 26.2406 33.2006 25.8C33.397 25.6804 33.6501 25.7455 33.7679 25.9411C33.8846 26.137 33.8221 26.3926 33.626 26.5108C33.149 26.7984 32.8772 27.2096 32.8772 27.6423C32.8772 28.0747 33.1517 28.4874 33.626 28.7749C33.8221 28.8932 33.8846 29.1477 33.7679 29.3446C33.6912 29.4724 33.5534 29.5443 33.4126 29.5443Z" fill="black"/>
<path fill-rule="evenodd" clip-rule="evenodd" d="M33.585 28.0555H33.4195C33.1901 28.0555 33.0059 27.8695 33.0059 27.6419C33.0059 27.4116 33.1901 27.2252 33.4195 27.2252H33.585C33.8117 27.2252 33.9973 27.4116 33.9973 27.6419C33.9973 27.8695 33.8117 28.0555 33.585 28.0555Z" fill="black"/>
<path fill-rule="evenodd" clip-rule="evenodd" d="M23.3335 14.5107C23.2754 14.5107 23.2195 14.5002 23.1628 14.4736C22.9558 14.3779 22.8646 14.1301 22.9599 13.9254L25.9127 7.43412H5.87247L8.54163 13.2971C8.63562 13.5046 8.54434 13.7523 8.33602 13.8466C8.13075 13.9427 7.8841 13.8521 7.78876 13.6419L4.85327 7.19184C4.79355 7.0627 4.80543 6.91246 4.88245 6.79525C4.95641 6.67531 5.08634 6.60477 5.22952 6.60477H26.5557C26.6971 6.60477 26.8271 6.67531 26.9041 6.79525C26.9798 6.91246 26.9903 7.0627 26.9319 7.19184L23.7114 14.2688C23.6426 14.4218 23.4912 14.5107 23.3335 14.5107Z" fill="black"/>
<path fill-rule="evenodd" clip-rule="evenodd" d="M25.467 9.82654H6.3174C6.0894 9.82654 5.90381 9.6405 5.90381 9.41017C5.90381 9.18256 6.0894 8.99619 6.3174 8.99619H25.467C25.6964 8.99619 25.8793 9.18256 25.8793 9.41017C25.8793 9.6405 25.6964 9.82654 25.467 9.82654Z" fill="black"/>
<path fill-rule="evenodd" clip-rule="evenodd" d="M7.34181 7.43433C7.11245 7.43433 6.92822 7.24793 6.92822 7.01896V3.79531C6.92822 3.5677 7.11245 3.38031 7.34181 3.38031C7.56981 3.38031 7.75507 3.5677 7.75507 3.79531V7.01896C7.75507 7.24793 7.56981 7.43433 7.34181 7.43433ZM13.4025 7.43433C13.1758 7.43433 12.9902 7.24793 12.9902 7.01896V2.40173C12.9902 2.1731 13.1758 1.98809 13.4025 1.98809C13.6318 1.98809 13.8174 2.1731 13.8174 2.40173V7.01896C13.8174 7.24793 13.6318 7.43433 13.4025 7.43433Z" fill="black"/>
<path fill-rule="evenodd" clip-rule="evenodd" d="M13.4022 1.41666C13.3822 1.41666 13.3611 1.41801 13.3411 1.42313L7.27774 2.83818C7.20615 2.85283 7.14643 2.8978 7.10809 2.95914C7.06975 3.02183 7.05653 3.0951 7.07248 3.167C7.08978 3.23991 7.13319 3.29988 7.19426 3.33838C7.25805 3.37859 7.33067 3.39051 7.40226 3.37313L13.4656 1.9608C13.6129 1.92638 13.7045 1.77715 13.6712 1.62961C13.6407 1.5032 13.5281 1.41666 13.4022 1.41666ZM7.33881 4.21167C7.13591 4.21167 6.9371 4.15579 6.75966 4.04403C6.50926 3.88695 6.33555 3.64333 6.26938 3.3544C6.20288 3.06818 6.25073 2.77277 6.40714 2.52131C6.56219 2.26985 6.80613 2.09539 7.09215 2.02895L13.1545 0.61389C13.7455 0.476917 14.3393 0.84831 14.4743 1.44186C14.6121 2.03541 14.2426 2.63035 13.6512 2.76766L7.58919 4.181C7.50708 4.20246 7.42227 4.21167 7.33881 4.21167Z" fill="black"/>
<path fill-rule="evenodd" clip-rule="evenodd" d="M24.446 7.43433C24.2167 7.43433 24.0338 7.24793 24.0338 7.01896V4.62875C24.0338 4.31732 23.782 4.06552 23.4719 4.06552H20.2233C19.9132 4.06552 19.6614 4.31834 19.6614 4.62875V7.01896C19.6614 7.24793 19.4758 7.43433 19.2492 7.43433C19.0202 7.43433 18.8359 7.24793 18.8359 7.01896V4.62875C18.8359 3.85938 19.4575 3.2338 20.2233 3.2338H23.4719C24.2353 3.2338 24.8583 3.85938 24.8583 4.62875V7.01896C24.8583 7.24793 24.674 7.43433 24.446 7.43433Z" fill="black"/>
<path fill-rule="evenodd" clip-rule="evenodd" d="M21.8479 0.830239C21.1863 0.830239 20.6482 1.36928 20.6482 2.03336C20.6482 2.69642 21.1863 3.23546 21.8479 3.23546C22.5092 3.23546 23.046 2.69642 23.046 2.03336C23.046 1.36928 22.5092 0.830239 21.8479 0.830239ZM21.8479 4.06445C20.7307 4.06445 19.8228 3.15301 19.8228 2.03099C19.8228 0.911349 20.7307 -0.000104427 21.8479 -0.000104427C22.9625 -0.000104427 23.8701 0.911349 23.8701 2.03099C23.8701 3.15301 22.9625 4.06445 21.8479 4.06445Z" fill="black"/>
<path fill-rule="evenodd" clip-rule="evenodd" d="M29.695 22.0076C28.6548 22.0076 27.8079 21.1571 27.8079 20.1138V18.3328C27.8079 18.172 27.9005 18.0255 28.0451 17.9577C28.1896 17.8885 28.3606 17.911 28.4838 18.0135L29.959 19.2368C30.1337 19.3829 30.1592 19.6439 30.0133 19.8208C29.8687 19.9966 29.6092 20.0218 29.4314 19.8756L28.6324 19.2126V20.1138C28.6324 20.7019 29.1094 21.1799 29.694 21.1799C30.2782 21.1799 30.7553 20.7005 30.7553 20.1138V1.82611L24.6946 6.49377C24.5131 6.63347 24.2546 6.59907 24.1154 6.4178C23.9777 6.23551 24.0096 5.97484 24.1925 5.83616L30.9185 0.65604C31.0416 0.558931 31.2099 0.542929 31.3517 0.612097C31.4922 0.682629 31.5825 0.826405 31.5825 0.98348V20.1111C31.5838 21.1571 30.737 22.0076 29.695 22.0076Z" fill="black"/>
<path fill-rule="evenodd" clip-rule="evenodd" d="M37.5878 14.6256C36.9424 14.6256 36.3327 14.3728 35.7403 14.1278C35.1982 13.9029 34.6906 13.6913 34.2081 13.6913C33.7257 13.6913 33.2154 13.9029 32.6763 14.1278C32.0849 14.3728 31.4728 14.6256 30.8285 14.6256C30.1832 14.6256 29.5721 14.3728 28.9811 14.1278C28.4416 13.9029 27.9313 13.6913 27.4489 13.6913C26.9664 13.6913 26.4565 13.9029 25.917 14.1278C25.326 14.3728 24.7136 14.6256 24.0693 14.6256C23.4226 14.6256 22.8129 14.3728 22.2218 14.1278C21.6824 13.9029 21.1721 13.6913 20.6896 13.6913C20.2099 13.6913 19.6972 13.9029 19.1578 14.1278C18.5681 14.3728 17.957 14.6256 17.3103 14.6256C16.666 14.6256 16.055 14.3728 15.4626 14.1278C14.9231 13.9029 14.4128 13.6913 13.9307 13.6913C13.451 13.6913 12.938 13.9029 12.3999 14.1278C11.8088 14.3728 11.1978 14.6256 10.5511 14.6256C9.90679 14.6256 9.29574 14.3728 8.70335 14.1278C8.16389 13.9029 7.65393 13.6913 7.17147 13.6913C6.69172 13.6913 6.18145 13.9029 5.64062 14.1278C5.04959 14.3728 4.43717 14.6256 3.79184 14.6256C3.14754 14.6256 2.53683 14.3728 1.94681 14.1278C1.40497 13.9029 0.894685 13.6913 0.412221 13.6913C0.185578 13.6913 0 13.5077 0 13.2773C0 13.0497 0.185578 12.8637 0.412221 12.8637C1.05754 12.8637 1.66994 13.1165 2.26098 13.3612C2.8018 13.5837 3.31209 13.7952 3.79184 13.7952C4.27431 13.7952 4.7846 13.5837 5.32372 13.3612C5.91612 13.1165 6.52717 12.8637 7.17147 12.8637C7.81815 12.8637 8.42921 13.1165 9.02025 13.3612C9.56107 13.5837 10.0713 13.7952 10.5511 13.7952C11.0336 13.7952 11.5435 13.5837 12.083 13.3612C12.6754 13.1165 13.2864 12.8637 13.9307 12.8637C14.5774 12.8637 15.1885 13.1165 15.7781 13.3612C16.3176 13.5837 16.8303 13.7952 17.3103 13.7952C17.7925 13.7952 18.3028 13.5837 18.8422 13.3612C19.4346 13.1165 20.0457 12.8637 20.6896 12.8637C21.3339 12.8637 21.9474 13.1165 22.5374 13.3612C23.0768 13.5837 23.5871 13.7952 24.0693 13.7952C24.5504 13.7952 25.062 13.5837 25.6015 13.3612C26.1925 13.1165 26.8036 12.8637 27.4489 12.8637C28.0932 12.8637 28.7053 13.1165 29.2966 13.3612C29.8358 13.5837 30.346 13.7952 30.8285 13.7952C31.311 13.7952 31.8185 13.5837 32.3607 13.3612C32.9531 13.1165 33.5628 12.8637 34.2081 12.8637C34.8524 12.8637 35.4645 13.1165 36.0545 13.3612C36.595 13.5837 37.1053 13.7952 37.5878 13.7952C37.8144 13.7952 38 13.9816 38 14.212C38 14.4406 37.8144 14.6256 37.5878 14.6256Z" fill="black"/>
</svg>
