<svg width="24" height="24" viewBox="0 0 24 24" fill="none" xmlns="http://www.w3.org/2000/svg">
<g clip-path="url(#clip0_237_10574)">
<path fill-rule="evenodd" clip-rule="evenodd" d="M10.9201 14.7843L8.71604 12.5803C8.10732 11.9716 7.95641 11.0416 8.3414 10.2716L8.46628 10.0219C8.85127 9.2519 8.70036 8.32196 8.09164 7.71323L5.35883 4.98043C5.16357 4.78517 4.84699 4.78517 4.65173 4.98043C4.61373 5.01843 4.5821 5.06231 4.55807 5.11038L3.45409 7.31833C2.60954 9.00744 2.94059 11.0475 4.27595 12.3828L10.2748 18.3816C11.7283 19.8352 13.8783 20.3427 15.8285 19.6927L18.2429 18.8879C18.5049 18.8005 18.6465 18.5174 18.5592 18.2554C18.5346 18.1818 18.4933 18.1149 18.4384 18.06L15.7871 15.4087C15.1784 14.8 14.2484 14.6491 13.4785 15.0341L13.2287 15.1589C12.4587 15.5439 11.5288 15.393 10.9201 14.7843Z" fill="#2293A7"/>
<path opacity="0.3" d="M9.85196 6.00712L10.0433 7.99794C11.5219 7.85581 12.9903 8.36893 14.0607 9.43931C15.1276 10.5062 15.6409 11.9685 15.5034 13.4426L17.4947 13.6284C17.687 11.5678 16.9672 9.51738 15.4749 8.0251C13.9777 6.5279 11.9188 5.80844 9.85196 6.00712ZM9.50194 2.02227L9.68699 4.01369C12.3382 3.76734 14.97 4.69179 16.8891 6.61088C18.8056 8.52732 19.7302 11.1546 19.4873 13.8024L21.4789 13.9851C21.7755 10.7517 20.6444 7.53774 18.3033 5.19667C15.959 2.85235 12.7394 1.72144 9.50194 2.02227Z" fill="#2293A7"/>
</g>
<defs>
<clipPath id="clip0_237_10574">
<rect width="24" height="24" fill="white" transform="matrix(-1 0 0 1 24 0)"/>
</clipPath>
</defs>
</svg>
