<svg width="17" height="16" viewBox="0 0 17 16" fill="none" xmlns="http://www.w3.org/2000/svg">
<path d="M4.0297 0.851064C4.11218 0.851064 4.19465 0.914894 4.19465 1L5.80293 10.8298C5.88541 11.3191 6.29779 11.7021 6.79264 11.7021H14.6485C15.1227 11.7021 15.5351 11.3404 15.6382 10.8511L16.8547 4.19149C16.9165 3.89362 16.8341 3.57447 16.6485 3.34043C16.4629 3.10638 16.1743 2.97872 15.865 2.97872H7.47307C7.24626 2.97872 7.06069 3.17021 7.06069 3.40426C7.06069 3.6383 7.24626 3.82979 7.47307 3.82979H15.865C15.9475 3.82979 15.9887 3.87234 16.0093 3.89362C16.0299 3.91489 16.0506 3.97872 16.0506 4.04255L15.7825 5.53191H7.88544C7.65864 5.53191 7.47307 5.7234 7.47307 5.95745C7.47307 6.19149 7.65864 6.38298 7.88544 6.38298H15.6176L15.3083 8.08511H8.29782C8.07102 8.08511 7.88544 8.2766 7.88544 8.51064C7.88544 8.74468 8.07102 8.93617 8.29782 8.93617H15.1433L14.8134 10.7021C14.7928 10.7872 14.7309 10.8511 14.6485 10.8511H6.79264C6.71016 10.8511 6.62769 10.7872 6.62769 10.7021L5.01941 0.87234C4.93693 0.382979 4.52456 0 4.0297 0H1.28738C1.06057 0 0.875 0.191489 0.875 0.425532C0.875 0.659574 1.06057 0.851064 1.28738 0.851064H4.0297Z" fill="#0E0401"/>
<path d="M7.80379 16C8.60793 16 9.26774 15.3192 9.26774 14.4894C9.26774 13.6596 8.60793 12.9788 7.80379 12.9788C6.99965 12.9788 6.33984 13.6596 6.33984 14.4894C6.33984 15.3192 6.99965 16 7.80379 16ZM7.80379 13.8298C8.15431 13.8298 8.44298 14.1277 8.44298 14.4894C8.44298 14.8511 8.15431 15.149 7.80379 15.149C7.45327 15.149 7.1646 14.8511 7.1646 14.4894C7.1646 14.1277 7.45327 13.8298 7.80379 13.8298Z" fill="#0E0401"/>
<path d="M14.6505 14.4894C14.6505 13.6596 13.9907 12.9788 13.1866 12.9788C12.3825 12.9788 11.7227 13.6596 11.7227 14.4894C11.7227 15.3192 12.3825 16 13.1866 16C13.9907 16 14.6505 15.3192 14.6505 14.4894ZM12.5268 14.4894C12.5268 14.1277 12.8155 13.8298 13.166 13.8298C13.5165 13.8298 13.8052 14.1277 13.8052 14.4894C13.8052 14.8511 13.5165 15.149 13.166 15.149C12.8155 15.149 12.5268 14.8511 12.5268 14.4894Z" fill="#0E0401"/>
</svg>
