<svg width="15" height="18" viewBox="0 0 15 18" fill="none" xmlns="http://www.w3.org/2000/svg">
<g clip-path="url(#clip0_219_3183)">
<path d="M1.14684 6.14337H13.5515L11.1909 9.10566C11.0798 9.24509 11.0798 9.47137 11.1909 9.6108C11.2464 9.67994 11.3197 9.7148 11.3921 9.7148C11.4645 9.7148 11.5379 9.67994 11.593 9.61137L14.439 6.03995C14.4467 6.03023 14.4499 6.01709 14.4568 6.0068C14.4731 5.98109 14.4904 5.9548 14.5005 5.92337C14.5109 5.89252 14.5132 5.85995 14.5159 5.82795C14.5178 5.81366 14.5228 5.80166 14.5228 5.78623C14.5228 5.75252 14.5141 5.7228 14.5073 5.69195C14.5046 5.67937 14.505 5.66509 14.5009 5.65195C14.4864 5.60566 14.464 5.56509 14.4353 5.5308L11.593 1.96395C11.4818 1.82452 11.3015 1.82452 11.1904 1.96395C11.0793 2.10337 11.0793 2.32966 11.1904 2.46909L13.5497 5.42966H1.14593C0.988831 5.42966 0.861328 5.58966 0.861328 5.7868C0.861328 5.98395 0.988831 6.14395 1.14593 6.14395L1.14684 6.14337ZM14.2386 11.8577H1.83399L4.1937 8.89652C4.30481 8.75709 4.30481 8.5308 4.1937 8.39137C4.08259 8.25194 3.90227 8.25194 3.79116 8.39137L0.945116 11.9628C0.942839 11.9657 0.942383 11.9702 0.939196 11.9725C0.916427 12.0034 0.896391 12.0382 0.883641 12.0777C0.854498 12.1657 0.854498 12.2639 0.883641 12.3519C0.891382 12.3754 0.905043 12.3937 0.916883 12.4142C0.926446 12.4319 0.932365 12.4514 0.94466 12.4668L3.7907 16.0382C3.84626 16.1074 3.91957 16.1422 3.99243 16.1422C4.06529 16.1422 4.13815 16.1074 4.19324 16.0371C4.30435 15.8977 4.30435 15.6714 4.19324 15.5319L1.83354 12.5708H14.2386C14.3957 12.5708 14.5232 12.4108 14.5232 12.2137C14.5232 12.0165 14.3957 11.8571 14.2386 11.8571V11.8577Z" fill="#001518"/>
</g>
<defs>
<clipPath id="clip0_219_3183">
<rect width="13.661" height="17.1429" fill="white" transform="translate(0.861328 0.429688)"/>
</clipPath>
</defs>
</svg>
