<svg width="14" height="14" viewBox="0 0 14 14" fill="none" xmlns="http://www.w3.org/2000/svg">
<g clip-path="url(#clip0_219_3172)">
<path d="M6.93951 1.85547C10.0087 1.85547 12.5622 4.07261 13.0978 6.99833C12.5627 9.92404 10.0087 12.1412 6.93951 12.1412C3.87034 12.1412 1.31687 9.92404 0.78125 6.99833C1.31631 4.07261 3.87034 1.85547 6.93951 1.85547ZM6.93951 10.9983C8.10039 10.9981 9.22681 10.6022 10.1344 9.87556C11.042 9.14891 11.677 8.13448 11.9355 6.99833C11.676 5.86307 11.0406 4.84976 10.1331 4.12405C9.22563 3.39835 8.09973 3.0032 6.93951 3.0032C5.77929 3.0032 4.6534 3.39835 3.7459 4.12405C2.8384 4.84976 2.203 5.86307 1.94357 6.99833C2.20205 8.13448 2.83704 9.14891 3.74463 9.87556C4.65221 10.6022 5.77863 10.9981 6.93951 10.9983ZM6.93951 9.56975C6.26018 9.56975 5.60867 9.29884 5.1283 8.8166C4.64794 8.33436 4.37808 7.68031 4.37808 6.99833C4.37808 6.31634 4.64794 5.66229 5.1283 5.18005C5.60867 4.69781 6.26018 4.4269 6.93951 4.4269C7.61885 4.4269 8.27036 4.69781 8.75072 5.18005C9.23108 5.66229 9.50095 6.31634 9.50095 6.99833C9.50095 7.68031 9.23108 8.33436 8.75072 8.8166C8.27036 9.29884 7.61885 9.56975 6.93951 9.56975ZM6.93951 8.4269C7.31692 8.4269 7.67887 8.27639 7.94574 8.00848C8.21261 7.74057 8.36253 7.37721 8.36253 6.99833C8.36253 6.61944 8.21261 6.25608 7.94574 5.98817C7.67887 5.72026 7.31692 5.56975 6.93951 5.56975C6.5621 5.56975 6.20015 5.72026 5.93329 5.98817C5.66642 6.25608 5.51649 6.61944 5.51649 6.99833C5.51649 7.37721 5.66642 7.74057 5.93329 8.00848C6.20015 8.27639 6.5621 8.4269 6.93951 8.4269Z" fill="#001518"/>
</g>
<defs>
<clipPath id="clip0_219_3172">
<rect width="13.661" height="13.7143" fill="white" transform="translate(0.109375 0.140625)"/>
</clipPath>
</defs>
</svg>
