<svg width="90" height="90" viewBox="0 0 90 90" fill="none" xmlns="http://www.w3.org/2000/svg">
<path d="M79.6865 22.5V0M74.999 30C74.999 31.1125 75.3289 32.2001 75.947 33.1251C76.5651 34.0501 77.4436 34.7711 78.4714 35.1968C79.4993 35.6226 80.6303 35.734 81.7214 35.5169C82.8125 35.2999 83.8148 34.7641 84.6015 33.9775C85.3882 33.1908 85.9239 32.1885 86.1409 31.0974C86.358 30.0062 86.2466 28.8752 85.8208 27.8474C85.3951 26.8196 84.6741 25.9411 83.7491 25.323C82.8241 24.7049 81.7365 24.375 80.624 24.375L79.6865 23.4375V20.625M37.499 75C29.2115 75 22.499 67.4437 22.499 58.125C22.499 48.8063 29.2115 41.25 37.499 41.25H40.499C49.9453 41.25 56.249 39.375 63.749 31.875V30.9375C56.249 30 52.499 28.125 52.499 28.125V27.1875C52.499 27.1875 58.124 22.5 64.6865 20.625V19.6875C58.964 12.0863 50.2528 7.5 40.499 7.5H37.499C33.7138 7.49615 29.9549 8.13002 26.3803 9.375M37.499 75C28.548 75 19.9635 71.4442 13.6342 65.1149C7.30482 58.7855 3.74902 50.2011 3.74902 41.25M37.499 75C41.5415 67.7588 49.0978 61.875 57.749 61.875V62.8125C57.749 62.8125 50.624 67.5 50.624 75C50.624 82.5 57.749 87.1875 57.749 87.1875V88.125C49.0978 88.125 41.5415 82.2412 37.499 75ZM26.3803 9.375H26.249C18.0928 9.375 11.249 3.75 11.249 3.75H9.37402C9.37402 3.75 3.74902 15 3.74902 41.25M26.3803 9.375C19.7679 11.6845 14.0374 15.9932 9.98262 21.7043C5.9278 27.4153 3.74935 34.2459 3.74902 41.25M44.999 22.5V15" stroke="white" stroke-width="2"/>
</svg>
